<svg width="1940" height="343" viewBox="0 0 1940 343" fill="none" xmlns="http://www.w3.org/2000/svg">
<g clip-path="url(#clip0_443_857)">
<rect width="1940" height="343" fill="white"/>
<rect x="-3.8999" width="80.3148" height="20.5514" rx="3" fill="#E14646" fill-opacity="0.3"/>
<path d="M3.75297 14V3.81818H7.19332C7.98877 3.81818 8.64171 3.95407 9.15212 4.22585C9.66254 4.49432 10.0404 4.86387 10.2856 5.33452C10.5309 5.80516 10.6535 6.34044 10.6535 6.94034C10.6535 7.54025 10.5309 8.07221 10.2856 8.53622C10.0404 9.00024 9.6642 9.36482 9.15709 9.62997C8.64999 9.89181 8.00203 10.0227 7.2132 10.0227H4.42911V8.90909H7.17343C7.71699 8.90909 8.15449 8.82955 8.48593 8.67045C8.82068 8.51136 9.06263 8.28598 9.21178 7.99432C9.36424 7.69934 9.44047 7.34801 9.44047 6.94034C9.44047 6.53267 9.36424 6.17637 9.21178 5.87145C9.05932 5.56652 8.81571 5.3312 8.48096 5.16548C8.1462 4.99645 7.70373 4.91193 7.15354 4.91193H4.98593V14H3.75297ZM8.54559 9.42614L11.0513 14H9.61945L7.15354 9.42614H8.54559ZM15.6686 14.1591C14.9328 14.1591 14.2981 13.9967 13.7645 13.6719C13.2342 13.3438 12.8249 12.8864 12.5365 12.2997C12.2515 11.7098 12.109 11.0237 12.109 10.2415C12.109 9.45928 12.2515 8.76989 12.5365 8.1733C12.8249 7.57339 13.2259 7.10606 13.7397 6.77131C14.2567 6.43324 14.8599 6.2642 15.5493 6.2642C15.947 6.2642 16.3398 6.33049 16.7276 6.46307C17.1154 6.59564 17.4684 6.81108 17.7865 7.10938C18.1047 7.40436 18.3583 7.79545 18.5472 8.28267C18.7361 8.76989 18.8306 9.36979 18.8306 10.0824V10.5795H12.9442V9.56534H17.6374C17.6374 9.13447 17.5512 8.75 17.3789 8.41193C17.2098 8.07386 16.9679 7.80705 16.653 7.61151C16.3415 7.41596 15.9736 7.31818 15.5493 7.31818C15.082 7.31818 14.6776 7.43419 14.3362 7.66619C13.9982 7.89489 13.738 8.19318 13.5557 8.56108C13.3734 8.92898 13.2823 9.32339 13.2823 9.74432V10.4205C13.2823 10.9972 13.3817 11.486 13.5806 11.8871C13.7827 12.2848 14.0628 12.5881 14.4208 12.7969C14.7787 13.0024 15.1947 13.1051 15.6686 13.1051C15.9769 13.1051 16.2553 13.062 16.5039 12.9759C16.7558 12.8864 16.9728 12.7538 17.1551 12.5781C17.3374 12.3991 17.4783 12.1771 17.5777 11.9119L18.7112 12.2301C18.5919 12.6146 18.3914 12.9527 18.1097 13.2443C17.828 13.5327 17.48 13.758 17.0657 13.9205C16.6514 14.0795 16.1857 14.1591 15.6686 14.1591ZM23.4989 14.1591C22.8625 14.1591 22.3007 13.9983 21.8135 13.6768C21.3263 13.352 20.9451 12.8946 20.6701 12.3047C20.395 11.7114 20.2574 11.0104 20.2574 10.2017C20.2574 9.39962 20.395 8.7036 20.6701 8.11364C20.9451 7.52367 21.328 7.06794 21.8185 6.74645C22.309 6.42495 22.8758 6.2642 23.5188 6.2642C24.0159 6.2642 24.4087 6.34706 24.697 6.51278C24.9887 6.67519 25.2108 6.8608 25.3632 7.0696C25.519 7.27509 25.64 7.44413 25.7262 7.5767H25.8256V3.81818H26.9989V14H25.8654V12.8267H25.7262C25.64 12.9659 25.5174 13.1416 25.3583 13.3537C25.1992 13.5625 24.9721 13.7498 24.6772 13.9155C24.3822 14.0779 23.9894 14.1591 23.4989 14.1591ZM23.658 13.1051C24.1286 13.1051 24.5264 12.9825 24.8512 12.7372C25.176 12.4886 25.4229 12.1456 25.5919 11.7081C25.761 11.2673 25.8455 10.7585 25.8455 10.1818C25.8455 9.61174 25.7626 9.11293 25.5969 8.68537C25.4312 8.2545 25.1859 7.91974 24.8611 7.68111C24.5363 7.43916 24.1353 7.31818 23.658 7.31818C23.1608 7.31818 22.7465 7.44579 22.4151 7.70099C22.087 7.95289 21.84 8.29593 21.6743 8.73011C21.5119 9.16098 21.4307 9.64489 21.4307 10.1818C21.4307 10.7254 21.5136 11.2192 21.6793 11.6634C21.8483 12.1042 22.0969 12.4555 22.425 12.7173C22.7565 12.9759 23.1675 13.1051 23.658 13.1051ZM36.5692 6.36364V7.35795H32.6118V6.36364H36.5692ZM33.7652 4.53409H34.9385V11.8125C34.9385 12.1439 34.9866 12.3925 35.0827 12.5582C35.1821 12.7206 35.3081 12.83 35.4605 12.8864C35.6163 12.9394 35.7804 12.9659 35.9527 12.9659C36.082 12.9659 36.188 12.9593 36.2709 12.946C36.3538 12.9295 36.4201 12.9162 36.4698 12.9062L36.7084 13.9602C36.6289 13.9901 36.5178 14.0199 36.3753 14.0497C36.2328 14.0829 36.0522 14.0994 35.8334 14.0994C35.502 14.0994 35.1772 14.0282 34.859 13.8857C34.5441 13.7431 34.2823 13.526 34.0735 13.2344C33.868 12.9427 33.7652 12.5748 33.7652 12.1307V4.53409ZM40.5813 14.179C40.0974 14.179 39.6582 14.0878 39.2638 13.9055C38.8694 13.7199 38.5562 13.4531 38.3242 13.1051C38.0922 12.7538 37.9762 12.3295 37.9762 11.8324C37.9762 11.3949 38.0623 11.0402 38.2347 10.7685C38.407 10.4934 38.6374 10.2779 38.9257 10.1222C39.2141 9.96638 39.5323 9.85038 39.8803 9.77415C40.2316 9.6946 40.5846 9.63163 40.9392 9.58523C41.4032 9.52557 41.7794 9.48082 42.0678 9.45099C42.3594 9.41785 42.5716 9.36316 42.7041 9.28693C42.84 9.2107 42.908 9.07812 42.908 8.8892V8.84943C42.908 8.3589 42.7737 7.97775 42.5053 7.70597C42.2401 7.43419 41.8374 7.2983 41.2972 7.2983C40.7371 7.2983 40.2979 7.42093 39.9797 7.66619C39.6615 7.91146 39.4378 8.1733 39.3085 8.4517L38.1949 8.05398C38.3938 7.58996 38.6589 7.22869 38.9904 6.97017C39.3251 6.70833 39.6897 6.52604 40.0841 6.4233C40.4818 6.31723 40.8729 6.2642 41.2574 6.2642C41.5027 6.2642 41.7844 6.29403 42.1026 6.35369C42.4241 6.41004 42.734 6.5277 43.0323 6.70668C43.3339 6.88565 43.5841 7.15578 43.783 7.51705C43.9818 7.87831 44.0813 8.36222 44.0813 8.96875V14H42.908V12.9659H42.8483C42.7688 13.1316 42.6362 13.3089 42.4506 13.4979C42.265 13.6868 42.0181 13.8475 41.7098 13.9801C41.4016 14.1127 41.0254 14.179 40.5813 14.179ZM40.7603 13.125C41.2243 13.125 41.6154 13.0339 41.9335 12.8516C42.255 12.6693 42.497 12.4339 42.6594 12.1456C42.8251 11.8572 42.908 11.554 42.908 11.2358V10.1619C42.8583 10.2216 42.7489 10.2763 42.5799 10.326C42.4141 10.3724 42.2219 10.4138 42.0032 10.4503C41.7877 10.4834 41.5773 10.5133 41.3718 10.5398C41.1696 10.563 41.0055 10.5829 40.8796 10.5994C40.5746 10.6392 40.2896 10.7038 40.0245 10.7933C39.7626 10.8795 39.5505 11.0104 39.3881 11.1861C39.229 11.3584 39.1495 11.5937 39.1495 11.892C39.1495 12.2997 39.3003 12.608 39.6019 12.8168C39.9068 13.0223 40.2929 13.125 40.7603 13.125ZM49.3052 17.0227C48.7384 17.0227 48.2512 16.9498 47.8435 16.804C47.4359 16.6615 47.0961 16.4725 46.8244 16.2372C46.5559 16.0052 46.3421 15.7566 46.183 15.4915L47.1177 14.8352C47.2237 14.9744 47.358 15.1335 47.5204 15.3125C47.6828 15.4948 47.9048 15.6522 48.1866 15.7848C48.4716 15.9207 48.8445 15.9886 49.3052 15.9886C49.9217 15.9886 50.4304 15.8395 50.8315 15.5412C51.2325 15.2429 51.433 14.7756 51.433 14.1392V12.5881H51.3336C51.2474 12.7273 51.1248 12.8996 50.9657 13.1051C50.8099 13.3073 50.5845 13.4879 50.2896 13.647C49.9979 13.8028 49.6035 13.8807 49.1063 13.8807C48.4898 13.8807 47.9363 13.7348 47.4458 13.4432C46.9586 13.1515 46.5725 12.7273 46.2874 12.1705C46.0057 11.6136 45.8648 10.9375 45.8648 10.142C45.8648 9.35985 46.0024 8.67874 46.2775 8.09872C46.5526 7.51539 46.9354 7.06463 47.4259 6.74645C47.9164 6.42495 48.4832 6.2642 49.1262 6.2642C49.6234 6.2642 50.0178 6.34706 50.3094 6.51278C50.6044 6.67519 50.8298 6.8608 50.9856 7.0696C51.1447 7.27509 51.2673 7.44413 51.3535 7.5767H51.4728V6.36364H52.6063V14.2188C52.6063 14.875 52.4572 15.4086 52.1589 15.8196C51.8639 16.2339 51.4662 16.5372 50.9657 16.7294C50.4685 16.925 49.915 17.0227 49.3052 17.0227ZM49.2654 12.8267C49.736 12.8267 50.1338 12.719 50.4586 12.5036C50.7834 12.2881 51.0303 11.9782 51.1994 11.5739C51.3684 11.1695 51.4529 10.6856 51.4529 10.1222C51.4529 9.57197 51.37 9.08641 51.2043 8.66548C51.0386 8.24455 50.7933 7.91477 50.4685 7.67614C50.1437 7.4375 49.7427 7.31818 49.2654 7.31818C48.7682 7.31818 48.3539 7.44413 48.0225 7.69602C47.6944 7.94792 47.4475 8.28598 47.2817 8.71023C47.1193 9.13447 47.0381 9.60511 47.0381 10.1222C47.0381 10.6525 47.121 11.1214 47.2867 11.5291C47.4557 11.9335 47.7043 12.2517 48.0324 12.4837C48.3639 12.7124 48.7749 12.8267 49.2654 12.8267Z" fill="#37352F"/>
<path d="M-4 0H1944V343H-4V0Z" fill="#CCFFE2"/>
<path fill-rule="evenodd" clip-rule="evenodd" d="M1943.55 237.166V343H475.379C535.532 293.689 599.915 248.214 668.419 207.174C1082.63 -40.9782 1540.57 29.3675 1943.55 237.166Z" fill="#FFECEA"/>
<path fill-rule="evenodd" clip-rule="evenodd" d="M1373.87 169.08C1373.93 113.585 1408.92 58.5252 1467.21 46.2886C1518.96 35.4249 1554.8 83.747 1584.16 124.933C1611.76 163.654 1640.07 210.579 1611.16 248.223C1579.64 289.281 1518.29 294.69 1466.96 277.572C1415.17 260.296 1373.82 220.063 1373.87 169.08Z" fill="#0018A4"/>
<path fill-rule="evenodd" clip-rule="evenodd" d="M135.668 64.0355C166.613 63.0843 197.932 81.711 205.784 114.146C212.755 142.942 186.443 163.876 163.996 181.054C142.892 197.204 117.226 213.893 95.7253 198.369C72.2753 181.438 68.1762 147.165 76.8156 118.11C85.5343 88.7876 107.239 64.9093 135.668 64.0355Z" fill="white"/>
<rect x="-4" width="1944" height="100" fill="#0018A4"/>
<path d="M-48.5005 62H-49.1565L-55.0605 46.871V62H-55.7165V39.532H-60.6365V62H-61.2925V33.3H-52.1495C-46.9015 33.3 -42.7195 37.482 -42.7195 42.73C-42.7195 46.912 -44.8105 49.372 -47.2295 50.889L-42.9245 62H-43.5805L-47.7625 51.217C-48.9515 51.914 -50.6325 52.529 -52.0265 52.939L-48.5005 62ZM-49.4025 45.313L-47.4755 50.274C-45.2615 48.88 -43.3755 46.584 -43.3755 42.73C-43.3755 37.81 -47.2295 33.956 -52.1495 33.956H-55.0605V38.876H-52.1495C-50.0175 38.876 -48.2955 40.598 -48.2955 42.73C-48.2955 43.714 -48.6645 44.575 -49.4025 45.313ZM-55.0605 39.532V46.871L-53.5025 46.543C-50.3045 45.846 -48.9515 44.493 -48.9515 42.73C-48.9515 40.926 -50.3455 39.532 -52.1495 39.532H-55.0605ZM-60.6365 33.956V38.876H-55.7165V33.956H-60.6365ZM-48.0085 50.602L-49.8945 45.764C-51.1245 46.707 -52.5595 47.035 -54.1585 47.363L-52.2725 52.283C-51.0425 51.955 -49.0335 51.217 -48.0085 50.602ZM-41.2342 51.135C-41.2342 44.862 -36.1502 39.778 -29.8772 39.778C-24.8752 39.778 -20.6522 42.976 -19.1352 47.486L-32.4602 55.563C-31.6812 56.014 -30.8202 56.26 -29.8772 56.26C-27.8272 56.26 -26.0642 55.03 -25.2442 53.308L-24.6292 53.595C-25.5312 55.563 -27.5402 56.916 -29.8772 56.916C-31.0662 56.916 -32.1732 56.547 -33.0752 55.932L-37.5032 58.638C-35.5762 60.606 -32.8702 61.836 -29.8772 61.836C-25.6132 61.836 -21.8822 59.294 -20.1602 55.645L-19.5862 55.932C-21.3902 59.827 -25.3262 62.492 -29.8772 62.492C-36.1502 62.492 -41.2342 57.408 -41.2342 51.135ZM-40.5782 51.135C-40.5782 52.324 -40.3732 53.431 -40.0452 54.497L-35.6172 51.791C-35.6582 51.586 -35.6582 51.34 -35.6582 51.135C-35.6582 47.937 -33.0752 45.354 -29.8772 45.354C-28.6882 45.354 -27.5402 45.723 -26.6382 46.338L-22.2512 43.673C-24.1782 41.664 -26.8842 40.434 -29.8772 40.434C-35.7812 40.434 -40.5782 45.231 -40.5782 51.135ZM-39.7992 55.112C-39.3482 56.219 -38.7332 57.244 -37.9542 58.146L-33.6492 55.522C-34.5512 54.743 -35.2072 53.677 -35.4942 52.488L-39.7992 55.112ZM-35.0022 51.135V51.422L-27.2532 46.707C-28.0322 46.256 -28.9342 46.01 -29.8772 46.01C-32.7062 46.01 -35.0022 48.306 -35.0022 51.135ZM-34.9202 52.16C-34.6742 53.349 -33.9772 54.415 -33.0342 55.153L-24.8342 50.151C-25.0802 48.962 -25.7362 47.896 -26.6792 47.117L-34.9202 52.16ZM-26.0642 46.789C-25.1622 47.568 -24.5062 48.593 -24.2602 49.823L-19.9142 47.158C-20.3652 46.051 -21.0212 45.067 -21.7592 44.165L-26.0642 46.789ZM-1.23391 42.115V60.155C1.51309 58.474 3.68609 55.071 3.68609 51.135C3.68609 47.199 1.51309 43.796 -1.23391 42.115ZM-7.01491 39.778C-5.16991 39.778 -3.44791 40.229 -1.88991 41.008V40.27H-1.23391V41.377C1.06209 42.648 2.82509 44.944 3.68609 47.322V40.27H4.34209V62H3.68609V54.907C2.86609 57.244 1.06209 59.663 -1.23391 60.934V62H-1.88991V61.262C-3.44791 62.041 -5.16991 62.492 -7.01491 62.492C-13.2879 62.492 -18.3719 57.408 -18.3719 51.135C-18.3719 44.862 -13.2879 39.778 -7.01491 39.778ZM-7.01491 61.836C-5.16991 61.836 -3.40691 61.385 -1.88991 60.565V53.841C-2.87391 55.645 -4.80091 56.916 -7.01491 56.916C-10.2129 56.916 -12.7959 54.333 -12.7959 51.135C-12.7959 47.937 -10.2129 45.354 -7.01491 45.354C-4.80091 45.354 -2.87391 46.625 -1.88991 48.47V41.746C-3.40691 40.926 -5.16991 40.434 -7.01491 40.434C-12.9189 40.434 -17.7159 45.231 -17.7159 51.135C-17.7159 57.039 -12.9189 61.836 -7.01491 61.836ZM-7.01491 56.26C-4.14491 56.26 -1.88991 53.964 -1.88991 51.135C-1.88991 48.306 -4.14491 46.01 -7.01491 46.01C-9.84391 46.01 -12.1399 48.306 -12.1399 51.135C-12.1399 53.964 -9.84391 56.26 -7.01491 56.26ZM19.3881 45.846V46.502H18.1991C15.6981 46.502 13.5661 48.634 13.5661 51.135C13.5661 53.636 15.6981 55.768 18.1991 55.768H19.3881V56.424H18.1991C15.3291 56.424 12.9101 54.005 12.9101 51.135C12.9101 48.265 15.3291 45.846 18.1991 45.846H19.3881ZM19.3881 40.926H18.1991C12.5821 40.926 7.99013 45.518 7.99013 51.135C7.99013 56.752 12.5821 61.344 18.1991 61.344H19.3881V62H18.1991C12.2131 62 7.33413 57.121 7.33413 51.135C7.33413 45.149 12.2131 40.27 18.1991 40.27H19.3881V40.926ZM24.9071 40.926H21.6681V40.27H24.9071V33.3H25.5631V40.27H30.4831V33.3H31.1391V40.27H34.3781V40.926H31.1391V45.846H34.3781V46.502H31.1391V62H30.4831V46.502H25.5631V62H24.9071V46.502H21.6681V45.846H24.9071V40.926ZM30.4831 40.926H25.5631V45.846H30.4831V40.926ZM59.2847 62H58.6287L52.7247 46.871V62H52.0687V39.532H47.1487V62H46.4927V33.3H55.6357C60.8837 33.3 65.0657 37.482 65.0657 42.73C65.0657 46.912 62.9747 49.372 60.5557 50.889L64.8607 62H64.2047L60.0227 51.217C58.8337 51.914 57.1527 52.529 55.7587 52.939L59.2847 62ZM58.3827 45.313L60.3097 50.274C62.5237 48.88 64.4097 46.584 64.4097 42.73C64.4097 37.81 60.5557 33.956 55.6357 33.956H52.7247V38.876H55.6357C57.7677 38.876 59.4897 40.598 59.4897 42.73C59.4897 43.714 59.1207 44.575 58.3827 45.313ZM52.7247 39.532V46.871L54.2827 46.543C57.4807 45.846 58.8337 44.493 58.8337 42.73C58.8337 40.926 57.4397 39.532 55.6357 39.532H52.7247ZM47.1487 33.956V38.876H52.0687V33.956H47.1487ZM59.7767 50.602L57.8907 45.764C56.6607 46.707 55.2257 47.035 53.6267 47.363L55.5127 52.283C56.7427 51.955 58.7517 51.217 59.7767 50.602ZM77.9079 62.492C71.6349 62.492 66.5509 57.408 66.5509 51.135C66.5509 44.862 71.6349 39.778 77.9079 39.778C84.1809 39.778 89.2649 44.862 89.2649 51.135C89.2649 57.408 84.1809 62.492 77.9079 62.492ZM77.9079 61.836C83.8119 61.836 88.6089 57.039 88.6089 51.135C88.6089 45.231 83.8119 40.434 77.9079 40.434C72.0039 40.434 67.2069 45.231 67.2069 51.135C67.2069 57.039 72.0039 61.836 77.9079 61.836ZM77.9079 56.916C74.7099 56.916 72.1269 54.333 72.1269 51.135C72.1269 47.937 74.7099 45.354 77.9079 45.354C81.1059 45.354 83.6889 47.937 83.6889 51.135C83.6889 54.333 81.1059 56.916 77.9079 56.916ZM77.9079 56.26C80.7369 56.26 83.0329 53.964 83.0329 51.135C83.0329 48.306 80.7369 46.01 77.9079 46.01C75.0789 46.01 72.7829 48.306 72.7829 51.135C72.7829 53.964 75.0789 56.26 77.9079 56.26ZM111.721 40.27V62H111.065V55.809C110.163 58.146 108.4 60.073 106.145 61.18V62H105.489V61.508C104.341 61.959 103.111 62.205 101.799 62.205C96.3458 62.205 91.8768 57.736 91.8768 52.283V40.27H92.5328V52.283C92.5328 57.367 96.7148 61.549 101.799 61.549C103.111 61.549 104.341 61.262 105.489 60.77V54.579C104.71 55.809 103.357 56.629 101.799 56.629C99.4208 56.629 97.4528 54.661 97.4528 52.283V40.27H98.1088V52.283C98.1088 54.292 99.7898 55.973 101.799 55.973C103.808 55.973 105.489 54.292 105.489 52.283V40.27H106.145V60.442C109.056 58.884 111.065 55.809 111.065 52.283V40.27H111.721ZM117.958 40.926H114.719V40.27H117.958V33.3H118.614V40.27H123.534V33.3H124.19V40.27H127.429V40.926H124.19V45.846H127.429V46.502H124.19V62H123.534V46.502H118.614V62H117.958V46.502H114.719V45.846H117.958V40.926ZM123.534 40.926H118.614V45.846H123.534V40.926ZM128.772 51.135C128.772 44.862 133.856 39.778 140.129 39.778C145.131 39.778 149.354 42.976 150.871 47.486L137.546 55.563C138.325 56.014 139.186 56.26 140.129 56.26C142.179 56.26 143.942 55.03 144.762 53.308L145.377 53.595C144.475 55.563 142.466 56.916 140.129 56.916C138.94 56.916 137.833 56.547 136.931 55.932L132.503 58.638C134.43 60.606 137.136 61.836 140.129 61.836C144.393 61.836 148.124 59.294 149.846 55.645L150.42 55.932C148.616 59.827 144.68 62.492 140.129 62.492C133.856 62.492 128.772 57.408 128.772 51.135ZM129.428 51.135C129.428 52.324 129.633 53.431 129.961 54.497L134.389 51.791C134.348 51.586 134.348 51.34 134.348 51.135C134.348 47.937 136.931 45.354 140.129 45.354C141.318 45.354 142.466 45.723 143.368 46.338L147.755 43.673C145.828 41.664 143.122 40.434 140.129 40.434C134.225 40.434 129.428 45.231 129.428 51.135ZM130.207 55.112C130.658 56.219 131.273 57.244 132.052 58.146L136.357 55.522C135.455 54.743 134.799 53.677 134.512 52.488L130.207 55.112ZM135.004 51.135V51.422L142.753 46.707C141.974 46.256 141.072 46.01 140.129 46.01C137.3 46.01 135.004 48.306 135.004 51.135ZM135.086 52.16C135.332 53.349 136.029 54.415 136.972 55.153L145.172 50.151C144.926 48.962 144.27 47.896 143.327 47.117L135.086 52.16ZM143.942 46.789C144.844 47.568 145.5 48.593 145.746 49.823L150.092 47.158C149.641 46.051 148.985 45.067 148.247 44.165L143.942 46.789ZM158.44 62V42.689C156.226 44.042 153.52 46.83 153.52 51.709V62H152.864V40.27H153.52V47.732C154.545 44.903 156.144 43.304 158.44 41.951V40.27H159.096V41.582C160.736 40.762 162.499 40.352 164.221 40.352V41.008C162.499 41.008 160.695 41.459 159.096 42.32V49.044C160.039 47.199 162.007 45.928 164.221 45.928V46.584C161.351 46.584 159.096 48.88 159.096 51.709V62H158.44ZM175.819 62V33.3H183.855C189.062 33.3 193.285 37.523 193.285 42.73C193.285 44.534 192.793 46.215 191.891 47.65C192.793 49.044 193.285 50.766 193.285 52.57C193.285 57.777 189.062 62 183.855 62H175.819ZM176.475 61.344H181.395V56.424H176.475V61.344ZM176.475 55.768H181.395V49.372H176.475V55.768ZM176.475 48.716H181.395V46.584H176.475V48.716ZM176.475 45.928H181.395V39.532H176.475V45.928ZM176.475 38.876H181.395V33.956H176.475V38.876ZM182.051 61.344H183.855C188.693 61.344 192.629 57.408 192.629 52.57C192.629 50.725 192.055 49.044 191.112 47.65C192.055 46.256 192.629 44.575 192.629 42.73C192.629 37.892 188.693 33.956 183.855 33.956H182.051V38.876H183.855C185.987 38.876 187.709 40.598 187.709 42.73C187.709 44.862 185.987 46.584 183.855 46.584H182.051V48.716H183.855C185.987 48.716 187.709 50.438 187.709 52.57C187.709 54.702 185.987 56.424 183.855 56.424H182.051V61.344ZM182.051 55.768H183.855C185.618 55.768 187.053 54.333 187.053 52.57C187.053 50.807 185.618 49.372 183.855 49.372H182.051V55.768ZM182.051 45.928H183.855C185.618 45.928 187.053 44.493 187.053 42.73C187.053 40.967 185.618 39.532 183.855 39.532H182.051V45.928ZM206.954 62.492C200.681 62.492 195.597 57.408 195.597 51.135C195.597 44.862 200.681 39.778 206.954 39.778C213.227 39.778 218.311 44.862 218.311 51.135C218.311 57.408 213.227 62.492 206.954 62.492ZM206.954 61.836C212.858 61.836 217.655 57.039 217.655 51.135C217.655 45.231 212.858 40.434 206.954 40.434C201.05 40.434 196.253 45.231 196.253 51.135C196.253 57.039 201.05 61.836 206.954 61.836ZM206.954 56.916C203.756 56.916 201.173 54.333 201.173 51.135C201.173 47.937 203.756 45.354 206.954 45.354C210.152 45.354 212.735 47.937 212.735 51.135C212.735 54.333 210.152 56.916 206.954 56.916ZM206.954 56.26C209.783 56.26 212.079 53.964 212.079 51.135C212.079 48.306 209.783 46.01 206.954 46.01C204.125 46.01 201.829 48.306 201.829 51.135C201.829 53.964 204.125 56.26 206.954 56.26ZM221.251 62V40.27H221.907V62H221.251ZM227.483 40.27V62H226.827V40.27H227.483ZM226.827 38.138V31.25H227.483V38.138H226.827ZM221.907 31.25V38.138H221.251V31.25H221.907ZM232.317 31.25V62H231.661V31.25H232.317ZM237.893 31.25V62H237.237V31.25H237.893ZM240.841 51.135C240.841 44.862 245.925 39.778 252.198 39.778C257.2 39.778 261.423 42.976 262.94 47.486L249.615 55.563C250.394 56.014 251.255 56.26 252.198 56.26C254.248 56.26 256.011 55.03 256.831 53.308L257.446 53.595C256.544 55.563 254.535 56.916 252.198 56.916C251.009 56.916 249.902 56.547 249 55.932L244.572 58.638C246.499 60.606 249.205 61.836 252.198 61.836C256.462 61.836 260.193 59.294 261.915 55.645L262.489 55.932C260.685 59.827 256.749 62.492 252.198 62.492C245.925 62.492 240.841 57.408 240.841 51.135ZM241.497 51.135C241.497 52.324 241.702 53.431 242.03 54.497L246.458 51.791C246.417 51.586 246.417 51.34 246.417 51.135C246.417 47.937 249 45.354 252.198 45.354C253.387 45.354 254.535 45.723 255.437 46.338L259.824 43.673C257.897 41.664 255.191 40.434 252.198 40.434C246.294 40.434 241.497 45.231 241.497 51.135ZM242.276 55.112C242.727 56.219 243.342 57.244 244.121 58.146L248.426 55.522C247.524 54.743 246.868 53.677 246.581 52.488L242.276 55.112ZM247.073 51.135V51.422L254.822 46.707C254.043 46.256 253.141 46.01 252.198 46.01C249.369 46.01 247.073 48.306 247.073 51.135ZM247.155 52.16C247.401 53.349 248.098 54.415 249.041 55.153L257.241 50.151C256.995 48.962 256.339 47.896 255.396 47.117L247.155 52.16ZM256.011 46.789C256.913 47.568 257.569 48.593 257.815 49.823L262.161 47.158C261.71 46.051 261.054 45.067 260.316 44.165L256.011 46.789ZM270.509 62V42.689C268.295 44.042 265.589 46.83 265.589 51.709V62H264.933V40.27H265.589V47.732C266.614 44.903 268.213 43.304 270.509 41.951V40.27H271.165V41.582C272.805 40.762 274.568 40.352 276.29 40.352V41.008C274.568 41.008 272.764 41.459 271.165 42.32V49.044C272.108 47.199 274.076 45.928 276.29 45.928V46.584C273.42 46.584 271.165 48.88 271.165 51.709V62H270.509ZM294.12 39.532V45.928H297.031C298.835 45.928 300.229 44.534 300.229 42.73C300.229 40.926 298.835 39.532 297.031 39.532H294.12ZM294.12 38.876H297.031C299.163 38.876 300.885 40.598 300.885 42.73C300.885 44.862 299.163 46.584 297.031 46.584H294.12V51.504H297.031C301.951 51.504 305.805 47.65 305.805 42.73C305.805 37.81 301.951 33.956 297.031 33.956H294.12V38.876ZM288.544 52.16V62H287.888V33.3H297.031C302.279 33.3 306.461 37.482 306.461 42.73C306.461 47.978 302.279 52.16 297.031 52.16H294.12V62H293.464V52.16H288.544ZM288.544 39.532V45.928H293.464V39.532H288.544ZM293.464 33.956H288.544V38.876H293.464V33.956ZM293.464 46.584H288.544V51.504H293.464V46.584ZM309.913 31.25V62H309.257V31.25H309.913ZM315.489 31.25V62H314.833V31.25H315.489ZM335.575 42.115V60.155C338.322 58.474 340.495 55.071 340.495 51.135C340.495 47.199 338.322 43.796 335.575 42.115ZM329.794 39.778C331.639 39.778 333.361 40.229 334.919 41.008V40.27H335.575V41.377C337.871 42.648 339.634 44.944 340.495 47.322V40.27H341.151V62H340.495V54.907C339.675 57.244 337.871 59.663 335.575 60.934V62H334.919V61.262C333.361 62.041 331.639 62.492 329.794 62.492C323.521 62.492 318.437 57.408 318.437 51.135C318.437 44.862 323.521 39.778 329.794 39.778ZM329.794 61.836C331.639 61.836 333.402 61.385 334.919 60.565V53.841C333.935 55.645 332.008 56.916 329.794 56.916C326.596 56.916 324.013 54.333 324.013 51.135C324.013 47.937 326.596 45.354 329.794 45.354C332.008 45.354 333.935 46.625 334.919 48.47V41.746C333.402 40.926 331.639 40.434 329.794 40.434C323.89 40.434 319.093 45.231 319.093 51.135C319.093 57.039 323.89 61.836 329.794 61.836ZM329.794 56.26C332.664 56.26 334.919 53.964 334.919 51.135C334.919 48.306 332.664 46.01 329.794 46.01C326.965 46.01 324.669 48.306 324.669 51.135C324.669 53.964 326.965 56.26 329.794 56.26ZM347.382 40.926H344.143V40.27H347.382V33.3H348.038V40.27H352.958V33.3H353.614V40.27H356.853V40.926H353.614V45.846H356.853V46.502H353.614V62H352.958V46.502H348.038V62H347.382V46.502H344.143V45.846H347.382V40.926ZM352.958 40.926H348.038V45.846H352.958V40.926ZM358.195 51.135C358.195 44.862 363.279 39.778 369.552 39.778C374.554 39.778 378.777 42.976 380.294 47.486L366.969 55.563C367.748 56.014 368.609 56.26 369.552 56.26C371.602 56.26 373.365 55.03 374.185 53.308L374.8 53.595C373.898 55.563 371.889 56.916 369.552 56.916C368.363 56.916 367.256 56.547 366.354 55.932L361.926 58.638C363.853 60.606 366.559 61.836 369.552 61.836C373.816 61.836 377.547 59.294 379.269 55.645L379.843 55.932C378.039 59.827 374.103 62.492 369.552 62.492C363.279 62.492 358.195 57.408 358.195 51.135ZM358.851 51.135C358.851 52.324 359.056 53.431 359.384 54.497L363.812 51.791C363.771 51.586 363.771 51.34 363.771 51.135C363.771 47.937 366.354 45.354 369.552 45.354C370.741 45.354 371.889 45.723 372.791 46.338L377.178 43.673C375.251 41.664 372.545 40.434 369.552 40.434C363.648 40.434 358.851 45.231 358.851 51.135ZM359.63 55.112C360.081 56.219 360.696 57.244 361.475 58.146L365.78 55.522C364.878 54.743 364.222 53.677 363.935 52.488L359.63 55.112ZM364.427 51.135V51.422L372.176 46.707C371.397 46.256 370.495 46.01 369.552 46.01C366.723 46.01 364.427 48.306 364.427 51.135ZM364.509 52.16C364.755 53.349 365.452 54.415 366.395 55.153L374.595 50.151C374.349 48.962 373.693 47.896 372.75 47.117L364.509 52.16ZM373.365 46.789C374.267 47.568 374.923 48.593 375.169 49.823L379.515 47.158C379.064 46.051 378.408 45.067 377.67 44.165L373.365 46.789ZM404.221 62H403.565L397.661 46.871V62H397.005V39.532H392.085V62H391.429V33.3H400.572C405.82 33.3 410.002 37.482 410.002 42.73C410.002 46.912 407.911 49.372 405.492 50.889L409.797 62H409.141L404.959 51.217C403.77 51.914 402.089 52.529 400.695 52.939L404.221 62ZM403.319 45.313L405.246 50.274C407.46 48.88 409.346 46.584 409.346 42.73C409.346 37.81 405.492 33.956 400.572 33.956H397.661V38.876H400.572C402.704 38.876 404.426 40.598 404.426 42.73C404.426 43.714 404.057 44.575 403.319 45.313ZM397.661 39.532V46.871L399.219 46.543C402.417 45.846 403.77 44.493 403.77 42.73C403.77 40.926 402.376 39.532 400.572 39.532H397.661ZM392.085 33.956V38.876H397.005V33.956H392.085ZM404.713 50.602L402.827 45.764C401.597 46.707 400.162 47.035 398.563 47.363L400.449 52.283C401.679 51.955 403.688 51.217 404.713 50.602ZM411.487 51.135C411.487 44.862 416.571 39.778 422.844 39.778C427.846 39.778 432.069 42.976 433.586 47.486L420.261 55.563C421.04 56.014 421.901 56.26 422.844 56.26C424.894 56.26 426.657 55.03 427.477 53.308L428.092 53.595C427.19 55.563 425.181 56.916 422.844 56.916C421.655 56.916 420.548 56.547 419.646 55.932L415.218 58.638C417.145 60.606 419.851 61.836 422.844 61.836C427.108 61.836 430.839 59.294 432.561 55.645L433.135 55.932C431.331 59.827 427.395 62.492 422.844 62.492C416.571 62.492 411.487 57.408 411.487 51.135ZM412.143 51.135C412.143 52.324 412.348 53.431 412.676 54.497L417.104 51.791C417.063 51.586 417.063 51.34 417.063 51.135C417.063 47.937 419.646 45.354 422.844 45.354C424.033 45.354 425.181 45.723 426.083 46.338L430.47 43.673C428.543 41.664 425.837 40.434 422.844 40.434C416.94 40.434 412.143 45.231 412.143 51.135ZM412.922 55.112C413.373 56.219 413.988 57.244 414.767 58.146L419.072 55.522C418.17 54.743 417.514 53.677 417.227 52.488L412.922 55.112ZM417.719 51.135V51.422L425.468 46.707C424.689 46.256 423.787 46.01 422.844 46.01C420.015 46.01 417.719 48.306 417.719 51.135ZM417.801 52.16C418.047 53.349 418.744 54.415 419.687 55.153L427.887 50.151C427.641 48.962 426.985 47.896 426.042 47.117L417.801 52.16ZM426.657 46.789C427.559 47.568 428.215 48.593 428.461 49.823L432.807 47.158C432.356 46.051 431.7 45.067 430.962 44.165L426.657 46.789ZM451.488 42.115V60.155C454.235 58.474 456.408 55.071 456.408 51.135C456.408 47.199 454.235 43.796 451.488 42.115ZM445.707 39.778C447.552 39.778 449.274 40.229 450.832 41.008V40.27H451.488V41.377C453.784 42.648 455.547 44.944 456.408 47.322V40.27H457.064V62H456.408V54.907C455.588 57.244 453.784 59.663 451.488 60.934V62H450.832V61.262C449.274 62.041 447.552 62.492 445.707 62.492C439.434 62.492 434.35 57.408 434.35 51.135C434.35 44.862 439.434 39.778 445.707 39.778ZM445.707 61.836C447.552 61.836 449.315 61.385 450.832 60.565V53.841C449.848 55.645 447.921 56.916 445.707 56.916C442.509 56.916 439.926 54.333 439.926 51.135C439.926 47.937 442.509 45.354 445.707 45.354C447.921 45.354 449.848 46.625 450.832 48.47V41.746C449.315 40.926 447.552 40.434 445.707 40.434C439.803 40.434 435.006 45.231 435.006 51.135C435.006 57.039 439.803 61.836 445.707 61.836ZM445.707 56.26C448.577 56.26 450.832 53.964 450.832 51.135C450.832 48.306 448.577 46.01 445.707 46.01C442.878 46.01 440.582 48.306 440.582 51.135C440.582 53.964 442.878 56.26 445.707 56.26ZM472.11 45.846V46.502H470.921C468.42 46.502 466.288 48.634 466.288 51.135C466.288 53.636 468.42 55.768 470.921 55.768H472.11V56.424H470.921C468.051 56.424 465.632 54.005 465.632 51.135C465.632 48.265 468.051 45.846 470.921 45.846H472.11ZM472.11 40.926H470.921C465.304 40.926 460.712 45.518 460.712 51.135C460.712 56.752 465.304 61.344 470.921 61.344H472.11V62H470.921C464.935 62 460.056 57.121 460.056 51.135C460.056 45.149 464.935 40.27 470.921 40.27H472.11V40.926ZM477.629 40.926H474.39V40.27H477.629V33.3H478.285V40.27H483.205V33.3H483.861V40.27H487.1V40.926H483.861V45.846H487.1V46.502H483.861V62H483.205V46.502H478.285V62H477.629V46.502H474.39V45.846H477.629V40.926ZM483.205 40.926H478.285V45.846H483.205V40.926ZM512.006 62H511.35L505.446 46.871V62H504.79V39.532H499.87V62H499.214V33.3H508.357C513.605 33.3 517.787 37.482 517.787 42.73C517.787 46.912 515.696 49.372 513.277 50.889L517.582 62H516.926L512.744 51.217C511.555 51.914 509.874 52.529 508.48 52.939L512.006 62ZM511.104 45.313L513.031 50.274C515.245 48.88 517.131 46.584 517.131 42.73C517.131 37.81 513.277 33.956 508.357 33.956H505.446V38.876H508.357C510.489 38.876 512.211 40.598 512.211 42.73C512.211 43.714 511.842 44.575 511.104 45.313ZM505.446 39.532V46.871L507.004 46.543C510.202 45.846 511.555 44.493 511.555 42.73C511.555 40.926 510.161 39.532 508.357 39.532H505.446ZM499.87 33.956V38.876H504.79V33.956H499.87ZM512.498 50.602L510.612 45.764C509.382 46.707 507.947 47.035 506.348 47.363L508.234 52.283C509.464 51.955 511.473 51.217 512.498 50.602ZM530.63 62.492C524.357 62.492 519.273 57.408 519.273 51.135C519.273 44.862 524.357 39.778 530.63 39.778C536.903 39.778 541.987 44.862 541.987 51.135C541.987 57.408 536.903 62.492 530.63 62.492ZM530.63 61.836C536.534 61.836 541.331 57.039 541.331 51.135C541.331 45.231 536.534 40.434 530.63 40.434C524.726 40.434 519.929 45.231 519.929 51.135C519.929 57.039 524.726 61.836 530.63 61.836ZM530.63 56.916C527.432 56.916 524.849 54.333 524.849 51.135C524.849 47.937 527.432 45.354 530.63 45.354C533.828 45.354 536.411 47.937 536.411 51.135C536.411 54.333 533.828 56.916 530.63 56.916ZM530.63 56.26C533.459 56.26 535.755 53.964 535.755 51.135C535.755 48.306 533.459 46.01 530.63 46.01C527.801 46.01 525.505 48.306 525.505 51.135C525.505 53.964 527.801 56.26 530.63 56.26ZM564.442 40.27V62H563.786V55.809C562.884 58.146 561.121 60.073 558.866 61.18V62H558.21V61.508C557.062 61.959 555.832 62.205 554.52 62.205C549.067 62.205 544.598 57.736 544.598 52.283V40.27H545.254V52.283C545.254 57.367 549.436 61.549 554.52 61.549C555.832 61.549 557.062 61.262 558.21 60.77V54.579C557.431 55.809 556.078 56.629 554.52 56.629C552.142 56.629 550.174 54.661 550.174 52.283V40.27H550.83V52.283C550.83 54.292 552.511 55.973 554.52 55.973C556.529 55.973 558.21 54.292 558.21 52.283V40.27H558.866V60.442C561.777 58.884 563.786 55.809 563.786 52.283V40.27H564.442ZM570.68 40.926H567.441V40.27H570.68V33.3H571.336V40.27H576.256V33.3H576.912V40.27H580.151V40.926H576.912V45.846H580.151V46.502H576.912V62H576.256V46.502H571.336V62H570.68V46.502H567.441V45.846H570.68V40.926ZM576.256 40.926H571.336V45.846H576.256V40.926ZM581.493 51.135C581.493 44.862 586.577 39.778 592.85 39.778C597.852 39.778 602.075 42.976 603.592 47.486L590.267 55.563C591.046 56.014 591.907 56.26 592.85 56.26C594.9 56.26 596.663 55.03 597.483 53.308L598.098 53.595C597.196 55.563 595.187 56.916 592.85 56.916C591.661 56.916 590.554 56.547 589.652 55.932L585.224 58.638C587.151 60.606 589.857 61.836 592.85 61.836C597.114 61.836 600.845 59.294 602.567 55.645L603.141 55.932C601.337 59.827 597.401 62.492 592.85 62.492C586.577 62.492 581.493 57.408 581.493 51.135ZM582.149 51.135C582.149 52.324 582.354 53.431 582.682 54.497L587.11 51.791C587.069 51.586 587.069 51.34 587.069 51.135C587.069 47.937 589.652 45.354 592.85 45.354C594.039 45.354 595.187 45.723 596.089 46.338L600.476 43.673C598.549 41.664 595.843 40.434 592.85 40.434C586.946 40.434 582.149 45.231 582.149 51.135ZM582.928 55.112C583.379 56.219 583.994 57.244 584.773 58.146L589.078 55.522C588.176 54.743 587.52 53.677 587.233 52.488L582.928 55.112ZM587.725 51.135V51.422L595.474 46.707C594.695 46.256 593.793 46.01 592.85 46.01C590.021 46.01 587.725 48.306 587.725 51.135ZM587.807 52.16C588.053 53.349 588.75 54.415 589.693 55.153L597.893 50.151C597.647 48.962 596.991 47.896 596.048 47.117L587.807 52.16ZM596.663 46.789C597.565 47.568 598.221 48.593 598.467 49.823L602.813 47.158C602.362 46.051 601.706 45.067 600.968 44.165L596.663 46.789ZM611.162 62V42.689C608.948 44.042 606.242 46.83 606.242 51.709V62H605.586V40.27H606.242V47.732C607.267 44.903 608.866 43.304 611.162 41.951V40.27H611.818V41.582C613.458 40.762 615.221 40.352 616.943 40.352V41.008C615.221 41.008 613.417 41.459 611.818 42.32V49.044C612.761 47.199 614.729 45.928 616.943 45.928V46.584C614.073 46.584 611.818 48.88 611.818 51.709V62H611.162ZM628.541 62V33.3H636.577C641.784 33.3 646.007 37.523 646.007 42.73C646.007 44.534 645.515 46.215 644.613 47.65C645.515 49.044 646.007 50.766 646.007 52.57C646.007 57.777 641.784 62 636.577 62H628.541ZM629.197 61.344H634.117V56.424H629.197V61.344ZM629.197 55.768H634.117V49.372H629.197V55.768ZM629.197 48.716H634.117V46.584H629.197V48.716ZM629.197 45.928H634.117V39.532H629.197V45.928ZM629.197 38.876H634.117V33.956H629.197V38.876ZM634.773 61.344H636.577C641.415 61.344 645.351 57.408 645.351 52.57C645.351 50.725 644.777 49.044 643.834 47.65C644.777 46.256 645.351 44.575 645.351 42.73C645.351 37.892 641.415 33.956 636.577 33.956H634.773V38.876H636.577C638.709 38.876 640.431 40.598 640.431 42.73C640.431 44.862 638.709 46.584 636.577 46.584H634.773V48.716H636.577C638.709 48.716 640.431 50.438 640.431 52.57C640.431 54.702 638.709 56.424 636.577 56.424H634.773V61.344ZM634.773 55.768H636.577C638.34 55.768 639.775 54.333 639.775 52.57C639.775 50.807 638.34 49.372 636.577 49.372H634.773V55.768ZM634.773 45.928H636.577C638.34 45.928 639.775 44.493 639.775 42.73C639.775 40.967 638.34 39.532 636.577 39.532H634.773V45.928ZM659.676 62.492C653.403 62.492 648.319 57.408 648.319 51.135C648.319 44.862 653.403 39.778 659.676 39.778C665.949 39.778 671.033 44.862 671.033 51.135C671.033 57.408 665.949 62.492 659.676 62.492ZM659.676 61.836C665.58 61.836 670.377 57.039 670.377 51.135C670.377 45.231 665.58 40.434 659.676 40.434C653.772 40.434 648.975 45.231 648.975 51.135C648.975 57.039 653.772 61.836 659.676 61.836ZM659.676 56.916C656.478 56.916 653.895 54.333 653.895 51.135C653.895 47.937 656.478 45.354 659.676 45.354C662.874 45.354 665.457 47.937 665.457 51.135C665.457 54.333 662.874 56.916 659.676 56.916ZM659.676 56.26C662.505 56.26 664.801 53.964 664.801 51.135C664.801 48.306 662.505 46.01 659.676 46.01C656.847 46.01 654.551 48.306 654.551 51.135C654.551 53.964 656.847 56.26 659.676 56.26ZM673.972 62V40.27H674.628V62H673.972ZM680.204 40.27V62H679.548V40.27H680.204ZM679.548 38.138V31.25H680.204V38.138H679.548ZM674.628 31.25V38.138H673.972V31.25H674.628ZM685.039 31.25V62H684.383V31.25H685.039ZM690.615 31.25V62H689.959V31.25H690.615ZM693.563 51.135C693.563 44.862 698.647 39.778 704.92 39.778C709.922 39.778 714.145 42.976 715.662 47.486L702.337 55.563C703.116 56.014 703.977 56.26 704.92 56.26C706.97 56.26 708.733 55.03 709.553 53.308L710.168 53.595C709.266 55.563 707.257 56.916 704.92 56.916C703.731 56.916 702.624 56.547 701.722 55.932L697.294 58.638C699.221 60.606 701.927 61.836 704.92 61.836C709.184 61.836 712.915 59.294 714.637 55.645L715.211 55.932C713.407 59.827 709.471 62.492 704.92 62.492C698.647 62.492 693.563 57.408 693.563 51.135ZM694.219 51.135C694.219 52.324 694.424 53.431 694.752 54.497L699.18 51.791C699.139 51.586 699.139 51.34 699.139 51.135C699.139 47.937 701.722 45.354 704.92 45.354C706.109 45.354 707.257 45.723 708.159 46.338L712.546 43.673C710.619 41.664 707.913 40.434 704.92 40.434C699.016 40.434 694.219 45.231 694.219 51.135ZM694.998 55.112C695.449 56.219 696.064 57.244 696.843 58.146L701.148 55.522C700.246 54.743 699.59 53.677 699.303 52.488L694.998 55.112ZM699.795 51.135V51.422L707.544 46.707C706.765 46.256 705.863 46.01 704.92 46.01C702.091 46.01 699.795 48.306 699.795 51.135ZM699.877 52.16C700.123 53.349 700.82 54.415 701.763 55.153L709.963 50.151C709.717 48.962 709.061 47.896 708.118 47.117L699.877 52.16ZM708.733 46.789C709.635 47.568 710.291 48.593 710.537 49.823L714.883 47.158C714.432 46.051 713.776 45.067 713.038 44.165L708.733 46.789ZM723.231 62V42.689C721.017 44.042 718.311 46.83 718.311 51.709V62H717.655V40.27H718.311V47.732C719.336 44.903 720.935 43.304 723.231 41.951V40.27H723.887V41.582C725.527 40.762 727.29 40.352 729.012 40.352V41.008C727.29 41.008 725.486 41.459 723.887 42.32V49.044C724.83 47.199 726.798 45.928 729.012 45.928V46.584C726.142 46.584 723.887 48.88 723.887 51.709V62H723.231ZM746.842 39.532V45.928H749.753C751.557 45.928 752.951 44.534 752.951 42.73C752.951 40.926 751.557 39.532 749.753 39.532H746.842ZM746.842 38.876H749.753C751.885 38.876 753.607 40.598 753.607 42.73C753.607 44.862 751.885 46.584 749.753 46.584H746.842V51.504H749.753C754.673 51.504 758.527 47.65 758.527 42.73C758.527 37.81 754.673 33.956 749.753 33.956H746.842V38.876ZM741.266 52.16V62H740.61V33.3H749.753C755.001 33.3 759.183 37.482 759.183 42.73C759.183 47.978 755.001 52.16 749.753 52.16H746.842V62H746.186V52.16H741.266ZM741.266 39.532V45.928H746.186V39.532H741.266ZM746.186 33.956H741.266V38.876H746.186V33.956ZM746.186 46.584H741.266V51.504H746.186V46.584ZM762.634 31.25V62H761.978V31.25H762.634ZM768.21 31.25V62H767.554V31.25H768.21ZM788.296 42.115V60.155C791.043 58.474 793.216 55.071 793.216 51.135C793.216 47.199 791.043 43.796 788.296 42.115ZM782.515 39.778C784.36 39.778 786.082 40.229 787.64 41.008V40.27H788.296V41.377C790.592 42.648 792.355 44.944 793.216 47.322V40.27H793.872V62H793.216V54.907C792.396 57.244 790.592 59.663 788.296 60.934V62H787.64V61.262C786.082 62.041 784.36 62.492 782.515 62.492C776.242 62.492 771.158 57.408 771.158 51.135C771.158 44.862 776.242 39.778 782.515 39.778ZM782.515 61.836C784.36 61.836 786.123 61.385 787.64 60.565V53.841C786.656 55.645 784.729 56.916 782.515 56.916C779.317 56.916 776.734 54.333 776.734 51.135C776.734 47.937 779.317 45.354 782.515 45.354C784.729 45.354 786.656 46.625 787.64 48.47V41.746C786.123 40.926 784.36 40.434 782.515 40.434C776.611 40.434 771.814 45.231 771.814 51.135C771.814 57.039 776.611 61.836 782.515 61.836ZM782.515 56.26C785.385 56.26 787.64 53.964 787.64 51.135C787.64 48.306 785.385 46.01 782.515 46.01C779.686 46.01 777.39 48.306 777.39 51.135C777.39 53.964 779.686 56.26 782.515 56.26ZM800.103 40.926H796.864V40.27H800.103V33.3H800.759V40.27H805.679V33.3H806.335V40.27H809.574V40.926H806.335V45.846H809.574V46.502H806.335V62H805.679V46.502H800.759V62H800.103V46.502H796.864V45.846H800.103V40.926ZM805.679 40.926H800.759V45.846H805.679V40.926ZM810.917 51.135C810.917 44.862 816.001 39.778 822.274 39.778C827.276 39.778 831.499 42.976 833.016 47.486L819.691 55.563C820.47 56.014 821.331 56.26 822.274 56.26C824.324 56.26 826.087 55.03 826.907 53.308L827.522 53.595C826.62 55.563 824.611 56.916 822.274 56.916C821.085 56.916 819.978 56.547 819.076 55.932L814.648 58.638C816.575 60.606 819.281 61.836 822.274 61.836C826.538 61.836 830.269 59.294 831.991 55.645L832.565 55.932C830.761 59.827 826.825 62.492 822.274 62.492C816.001 62.492 810.917 57.408 810.917 51.135ZM811.573 51.135C811.573 52.324 811.778 53.431 812.106 54.497L816.534 51.791C816.493 51.586 816.493 51.34 816.493 51.135C816.493 47.937 819.076 45.354 822.274 45.354C823.463 45.354 824.611 45.723 825.513 46.338L829.9 43.673C827.973 41.664 825.267 40.434 822.274 40.434C816.37 40.434 811.573 45.231 811.573 51.135ZM812.352 55.112C812.803 56.219 813.418 57.244 814.197 58.146L818.502 55.522C817.6 54.743 816.944 53.677 816.657 52.488L812.352 55.112ZM817.149 51.135V51.422L824.898 46.707C824.119 46.256 823.217 46.01 822.274 46.01C819.445 46.01 817.149 48.306 817.149 51.135ZM817.231 52.16C817.477 53.349 818.174 54.415 819.117 55.153L827.317 50.151C827.071 48.962 826.415 47.896 825.472 47.117L817.231 52.16ZM826.087 46.789C826.989 47.568 827.645 48.593 827.891 49.823L832.237 47.158C831.786 46.051 831.13 45.067 830.392 44.165L826.087 46.789ZM856.943 62H856.287L850.383 46.871V62H849.727V39.532H844.807V62H844.151V33.3H853.294C858.542 33.3 862.724 37.482 862.724 42.73C862.724 46.912 860.633 49.372 858.214 50.889L862.519 62H861.863L857.681 51.217C856.492 51.914 854.811 52.529 853.417 52.939L856.943 62ZM856.041 45.313L857.968 50.274C860.182 48.88 862.068 46.584 862.068 42.73C862.068 37.81 858.214 33.956 853.294 33.956H850.383V38.876H853.294C855.426 38.876 857.148 40.598 857.148 42.73C857.148 43.714 856.779 44.575 856.041 45.313ZM850.383 39.532V46.871L851.941 46.543C855.139 45.846 856.492 44.493 856.492 42.73C856.492 40.926 855.098 39.532 853.294 39.532H850.383ZM844.807 33.956V38.876H849.727V33.956H844.807ZM857.435 50.602L855.549 45.764C854.319 46.707 852.884 47.035 851.285 47.363L853.171 52.283C854.401 51.955 856.41 51.217 857.435 50.602ZM864.209 51.135C864.209 44.862 869.293 39.778 875.566 39.778C880.568 39.778 884.791 42.976 886.308 47.486L872.983 55.563C873.762 56.014 874.623 56.26 875.566 56.26C877.616 56.26 879.379 55.03 880.199 53.308L880.814 53.595C879.912 55.563 877.903 56.916 875.566 56.916C874.377 56.916 873.27 56.547 872.368 55.932L867.94 58.638C869.867 60.606 872.573 61.836 875.566 61.836C879.83 61.836 883.561 59.294 885.283 55.645L885.857 55.932C884.053 59.827 880.117 62.492 875.566 62.492C869.293 62.492 864.209 57.408 864.209 51.135ZM864.865 51.135C864.865 52.324 865.07 53.431 865.398 54.497L869.826 51.791C869.785 51.586 869.785 51.34 869.785 51.135C869.785 47.937 872.368 45.354 875.566 45.354C876.755 45.354 877.903 45.723 878.805 46.338L883.192 43.673C881.265 41.664 878.559 40.434 875.566 40.434C869.662 40.434 864.865 45.231 864.865 51.135ZM865.644 55.112C866.095 56.219 866.71 57.244 867.489 58.146L871.794 55.522C870.892 54.743 870.236 53.677 869.949 52.488L865.644 55.112ZM870.441 51.135V51.422L878.19 46.707C877.411 46.256 876.509 46.01 875.566 46.01C872.737 46.01 870.441 48.306 870.441 51.135ZM870.523 52.16C870.769 53.349 871.466 54.415 872.409 55.153L880.609 50.151C880.363 48.962 879.707 47.896 878.764 47.117L870.523 52.16ZM879.379 46.789C880.281 47.568 880.937 48.593 881.183 49.823L885.529 47.158C885.078 46.051 884.422 45.067 883.684 44.165L879.379 46.789ZM904.209 42.115V60.155C906.956 58.474 909.129 55.071 909.129 51.135C909.129 47.199 906.956 43.796 904.209 42.115ZM898.428 39.778C900.273 39.778 901.995 40.229 903.553 41.008V40.27H904.209V41.377C906.505 42.648 908.268 44.944 909.129 47.322V40.27H909.785V62H909.129V54.907C908.309 57.244 906.505 59.663 904.209 60.934V62H903.553V61.262C901.995 62.041 900.273 62.492 898.428 62.492C892.155 62.492 887.071 57.408 887.071 51.135C887.071 44.862 892.155 39.778 898.428 39.778ZM898.428 61.836C900.273 61.836 902.036 61.385 903.553 60.565V53.841C902.569 55.645 900.642 56.916 898.428 56.916C895.23 56.916 892.647 54.333 892.647 51.135C892.647 47.937 895.23 45.354 898.428 45.354C900.642 45.354 902.569 46.625 903.553 48.47V41.746C902.036 40.926 900.273 40.434 898.428 40.434C892.524 40.434 887.727 45.231 887.727 51.135C887.727 57.039 892.524 61.836 898.428 61.836ZM898.428 56.26C901.298 56.26 903.553 53.964 903.553 51.135C903.553 48.306 901.298 46.01 898.428 46.01C895.599 46.01 893.303 48.306 893.303 51.135C893.303 53.964 895.599 56.26 898.428 56.26ZM924.831 45.846V46.502H923.642C921.141 46.502 919.009 48.634 919.009 51.135C919.009 53.636 921.141 55.768 923.642 55.768H924.831V56.424H923.642C920.772 56.424 918.353 54.005 918.353 51.135C918.353 48.265 920.772 45.846 923.642 45.846H924.831ZM924.831 40.926H923.642C918.025 40.926 913.433 45.518 913.433 51.135C913.433 56.752 918.025 61.344 923.642 61.344H924.831V62H923.642C917.656 62 912.777 57.121 912.777 51.135C912.777 45.149 917.656 40.27 923.642 40.27H924.831V40.926ZM930.35 40.926H927.111V40.27H930.35V33.3H931.006V40.27H935.926V33.3H936.582V40.27H939.821V40.926H936.582V45.846H939.821V46.502H936.582V62H935.926V46.502H931.006V62H930.35V46.502H927.111V45.846H930.35V40.926ZM935.926 40.926H931.006V45.846H935.926V40.926ZM964.728 62H964.072L958.168 46.871V62H957.512V39.532H952.592V62H951.936V33.3H961.079C966.327 33.3 970.509 37.482 970.509 42.73C970.509 46.912 968.418 49.372 965.999 50.889L970.304 62H969.648L965.466 51.217C964.277 51.914 962.596 52.529 961.202 52.939L964.728 62ZM963.826 45.313L965.753 50.274C967.967 48.88 969.853 46.584 969.853 42.73C969.853 37.81 965.999 33.956 961.079 33.956H958.168V38.876H961.079C963.211 38.876 964.933 40.598 964.933 42.73C964.933 43.714 964.564 44.575 963.826 45.313ZM958.168 39.532V46.871L959.726 46.543C962.924 45.846 964.277 44.493 964.277 42.73C964.277 40.926 962.883 39.532 961.079 39.532H958.168ZM952.592 33.956V38.876H957.512V33.956H952.592ZM965.22 50.602L963.334 45.764C962.104 46.707 960.669 47.035 959.07 47.363L960.956 52.283C962.186 51.955 964.195 51.217 965.22 50.602ZM983.351 62.492C977.078 62.492 971.994 57.408 971.994 51.135C971.994 44.862 977.078 39.778 983.351 39.778C989.624 39.778 994.708 44.862 994.708 51.135C994.708 57.408 989.624 62.492 983.351 62.492ZM983.351 61.836C989.255 61.836 994.052 57.039 994.052 51.135C994.052 45.231 989.255 40.434 983.351 40.434C977.447 40.434 972.65 45.231 972.65 51.135C972.65 57.039 977.447 61.836 983.351 61.836ZM983.351 56.916C980.153 56.916 977.57 54.333 977.57 51.135C977.57 47.937 980.153 45.354 983.351 45.354C986.549 45.354 989.132 47.937 989.132 51.135C989.132 54.333 986.549 56.916 983.351 56.916ZM983.351 56.26C986.18 56.26 988.476 53.964 988.476 51.135C988.476 48.306 986.18 46.01 983.351 46.01C980.522 46.01 978.226 48.306 978.226 51.135C978.226 53.964 980.522 56.26 983.351 56.26ZM1017.16 40.27V62H1016.51V55.809C1015.61 58.146 1013.84 60.073 1011.59 61.18V62H1010.93V61.508C1009.78 61.959 1008.55 62.205 1007.24 62.205C1001.79 62.205 997.32 57.736 997.32 52.283V40.27H997.976V52.283C997.976 57.367 1002.16 61.549 1007.24 61.549C1008.55 61.549 1009.78 61.262 1010.93 60.77V54.579C1010.15 55.809 1008.8 56.629 1007.24 56.629C1004.86 56.629 1002.9 54.661 1002.9 52.283V40.27H1003.55V52.283C1003.55 54.292 1005.23 55.973 1007.24 55.973C1009.25 55.973 1010.93 54.292 1010.93 52.283V40.27H1011.59V60.442C1014.5 58.884 1016.51 55.809 1016.51 52.283V40.27H1017.16ZM1023.4 40.926H1020.16V40.27H1023.4V33.3H1024.06V40.27H1028.98V33.3H1029.63V40.27H1032.87V40.926H1029.63V45.846H1032.87V46.502H1029.63V62H1028.98V46.502H1024.06V62H1023.4V46.502H1020.16V45.846H1023.4V40.926ZM1028.98 40.926H1024.06V45.846H1028.98V40.926ZM1034.22 51.135C1034.22 44.862 1039.3 39.778 1045.57 39.778C1050.57 39.778 1054.8 42.976 1056.31 47.486L1042.99 55.563C1043.77 56.014 1044.63 56.26 1045.57 56.26C1047.62 56.26 1049.39 55.03 1050.21 53.308L1050.82 53.595C1049.92 55.563 1047.91 56.916 1045.57 56.916C1044.38 56.916 1043.28 56.547 1042.37 55.932L1037.95 58.638C1039.87 60.606 1042.58 61.836 1045.57 61.836C1049.84 61.836 1053.57 59.294 1055.29 55.645L1055.86 55.932C1054.06 59.827 1050.12 62.492 1045.57 62.492C1039.3 62.492 1034.22 57.408 1034.22 51.135ZM1034.87 51.135C1034.87 52.324 1035.08 53.431 1035.4 54.497L1039.83 51.791C1039.79 51.586 1039.79 51.34 1039.79 51.135C1039.79 47.937 1042.37 45.354 1045.57 45.354C1046.76 45.354 1047.91 45.723 1048.81 46.338L1053.2 43.673C1051.27 41.664 1048.57 40.434 1045.57 40.434C1039.67 40.434 1034.87 45.231 1034.87 51.135ZM1035.65 55.112C1036.1 56.219 1036.72 57.244 1037.5 58.146L1041.8 55.522C1040.9 54.743 1040.24 53.677 1039.96 52.488L1035.65 55.112ZM1040.45 51.135V51.422L1048.2 46.707C1047.42 46.256 1046.52 46.01 1045.57 46.01C1042.74 46.01 1040.45 48.306 1040.45 51.135ZM1040.53 52.16C1040.78 53.349 1041.47 54.415 1042.42 55.153L1050.62 50.151C1050.37 48.962 1049.71 47.896 1048.77 47.117L1040.53 52.16ZM1049.39 46.789C1050.29 47.568 1050.94 48.593 1051.19 49.823L1055.54 47.158C1055.08 46.051 1054.43 45.067 1053.69 44.165L1049.39 46.789ZM1063.88 62V42.689C1061.67 44.042 1058.96 46.83 1058.96 51.709V62H1058.31V40.27H1058.96V47.732C1059.99 44.903 1061.59 43.304 1063.88 41.951V40.27H1064.54V41.582C1066.18 40.762 1067.94 40.352 1069.66 40.352V41.008C1067.94 41.008 1066.14 41.459 1064.54 42.32V49.044C1065.48 47.199 1067.45 45.928 1069.66 45.928V46.584C1066.79 46.584 1064.54 48.88 1064.54 51.709V62H1063.88ZM1081.26 62V33.3H1089.3C1094.51 33.3 1098.73 37.523 1098.73 42.73C1098.73 44.534 1098.24 46.215 1097.33 47.65C1098.24 49.044 1098.73 50.766 1098.73 52.57C1098.73 57.777 1094.51 62 1089.3 62H1081.26ZM1081.92 61.344H1086.84V56.424H1081.92V61.344ZM1081.92 55.768H1086.84V49.372H1081.92V55.768ZM1081.92 48.716H1086.84V46.584H1081.92V48.716ZM1081.92 45.928H1086.84V39.532H1081.92V45.928ZM1081.92 38.876H1086.84V33.956H1081.92V38.876ZM1087.49 61.344H1089.3C1094.14 61.344 1098.07 57.408 1098.07 52.57C1098.07 50.725 1097.5 49.044 1096.56 47.65C1097.5 46.256 1098.07 44.575 1098.07 42.73C1098.07 37.892 1094.14 33.956 1089.3 33.956H1087.49V38.876H1089.3C1091.43 38.876 1093.15 40.598 1093.15 42.73C1093.15 44.862 1091.43 46.584 1089.3 46.584H1087.49V48.716H1089.3C1091.43 48.716 1093.15 50.438 1093.15 52.57C1093.15 54.702 1091.43 56.424 1089.3 56.424H1087.49V61.344ZM1087.49 55.768H1089.3C1091.06 55.768 1092.5 54.333 1092.5 52.57C1092.5 50.807 1091.06 49.372 1089.3 49.372H1087.49V55.768ZM1087.49 45.928H1089.3C1091.06 45.928 1092.5 44.493 1092.5 42.73C1092.5 40.967 1091.06 39.532 1089.3 39.532H1087.49V45.928ZM1112.4 62.492C1106.12 62.492 1101.04 57.408 1101.04 51.135C1101.04 44.862 1106.12 39.778 1112.4 39.778C1118.67 39.778 1123.75 44.862 1123.75 51.135C1123.75 57.408 1118.67 62.492 1112.4 62.492ZM1112.4 61.836C1118.3 61.836 1123.1 57.039 1123.1 51.135C1123.1 45.231 1118.3 40.434 1112.4 40.434C1106.49 40.434 1101.7 45.231 1101.7 51.135C1101.7 57.039 1106.49 61.836 1112.4 61.836ZM1112.4 56.916C1109.2 56.916 1106.62 54.333 1106.62 51.135C1106.62 47.937 1109.2 45.354 1112.4 45.354C1115.6 45.354 1118.18 47.937 1118.18 51.135C1118.18 54.333 1115.6 56.916 1112.4 56.916ZM1112.4 56.26C1115.23 56.26 1117.52 53.964 1117.52 51.135C1117.52 48.306 1115.23 46.01 1112.4 46.01C1109.57 46.01 1107.27 48.306 1107.27 51.135C1107.27 53.964 1109.57 56.26 1112.4 56.26ZM1126.69 62V40.27H1127.35V62H1126.69ZM1132.93 40.27V62H1132.27V40.27H1132.93ZM1132.27 38.138V31.25H1132.93V38.138H1132.27ZM1127.35 31.25V38.138H1126.69V31.25H1127.35ZM1137.76 31.25V62H1137.1V31.25H1137.76ZM1143.34 31.25V62H1142.68V31.25H1143.34ZM1146.28 51.135C1146.28 44.862 1151.37 39.778 1157.64 39.778C1162.64 39.778 1166.87 42.976 1168.38 47.486L1155.06 55.563C1155.84 56.014 1156.7 56.26 1157.64 56.26C1159.69 56.26 1161.45 55.03 1162.27 53.308L1162.89 53.595C1161.99 55.563 1159.98 56.916 1157.64 56.916C1156.45 56.916 1155.35 56.547 1154.44 55.932L1150.02 58.638C1151.94 60.606 1154.65 61.836 1157.64 61.836C1161.91 61.836 1165.64 59.294 1167.36 55.645L1167.93 55.932C1166.13 59.827 1162.19 62.492 1157.64 62.492C1151.37 62.492 1146.28 57.408 1146.28 51.135ZM1146.94 51.135C1146.94 52.324 1147.15 53.431 1147.47 54.497L1151.9 51.791C1151.86 51.586 1151.86 51.34 1151.86 51.135C1151.86 47.937 1154.44 45.354 1157.64 45.354C1158.83 45.354 1159.98 45.723 1160.88 46.338L1165.27 43.673C1163.34 41.664 1160.63 40.434 1157.64 40.434C1151.74 40.434 1146.94 45.231 1146.94 51.135ZM1147.72 55.112C1148.17 56.219 1148.79 57.244 1149.56 58.146L1153.87 55.522C1152.97 54.743 1152.31 53.677 1152.02 52.488L1147.72 55.112ZM1152.52 51.135V51.422L1160.27 46.707C1159.49 46.256 1158.58 46.01 1157.64 46.01C1154.81 46.01 1152.52 48.306 1152.52 51.135ZM1152.6 52.16C1152.84 53.349 1153.54 54.415 1154.48 55.153L1162.68 50.151C1162.44 48.962 1161.78 47.896 1160.84 47.117L1152.6 52.16ZM1161.45 46.789C1162.36 47.568 1163.01 48.593 1163.26 49.823L1167.6 47.158C1167.15 46.051 1166.5 45.067 1165.76 44.165L1161.45 46.789ZM1175.95 62V42.689C1173.74 44.042 1171.03 46.83 1171.03 51.709V62H1170.38V40.27H1171.03V47.732C1172.06 44.903 1173.66 43.304 1175.95 41.951V40.27H1176.61V41.582C1178.25 40.762 1180.01 40.352 1181.73 40.352V41.008C1180.01 41.008 1178.21 41.459 1176.61 42.32V49.044C1177.55 47.199 1179.52 45.928 1181.73 45.928V46.584C1178.86 46.584 1176.61 48.88 1176.61 51.709V62H1175.95ZM1199.56 39.532V45.928H1202.47C1204.28 45.928 1205.67 44.534 1205.67 42.73C1205.67 40.926 1204.28 39.532 1202.47 39.532H1199.56ZM1199.56 38.876H1202.47C1204.61 38.876 1206.33 40.598 1206.33 42.73C1206.33 44.862 1204.61 46.584 1202.47 46.584H1199.56V51.504H1202.47C1207.39 51.504 1211.25 47.65 1211.25 42.73C1211.25 37.81 1207.39 33.956 1202.47 33.956H1199.56V38.876ZM1193.99 52.16V62H1193.33V33.3H1202.47C1207.72 33.3 1211.9 37.482 1211.9 42.73C1211.9 47.978 1207.72 52.16 1202.47 52.16H1199.56V62H1198.91V52.16H1193.99ZM1193.99 39.532V45.928H1198.91V39.532H1193.99ZM1198.91 33.956H1193.99V38.876H1198.91V33.956ZM1198.91 46.584H1193.99V51.504H1198.91V46.584ZM1215.36 31.25V62H1214.7V31.25H1215.36ZM1220.93 31.25V62H1220.28V31.25H1220.93ZM1241.02 42.115V60.155C1243.77 58.474 1245.94 55.071 1245.94 51.135C1245.94 47.199 1243.77 43.796 1241.02 42.115ZM1235.24 39.778C1237.08 39.778 1238.8 40.229 1240.36 41.008V40.27H1241.02V41.377C1243.31 42.648 1245.08 44.944 1245.94 47.322V40.27H1246.59V62H1245.94V54.907C1245.12 57.244 1243.31 59.663 1241.02 60.934V62H1240.36V61.262C1238.8 62.041 1237.08 62.492 1235.24 62.492C1228.96 62.492 1223.88 57.408 1223.88 51.135C1223.88 44.862 1228.96 39.778 1235.24 39.778ZM1235.24 61.836C1237.08 61.836 1238.85 61.385 1240.36 60.565V53.841C1239.38 55.645 1237.45 56.916 1235.24 56.916C1232.04 56.916 1229.46 54.333 1229.46 51.135C1229.46 47.937 1232.04 45.354 1235.24 45.354C1237.45 45.354 1239.38 46.625 1240.36 48.47V41.746C1238.85 40.926 1237.08 40.434 1235.24 40.434C1229.33 40.434 1224.54 45.231 1224.54 51.135C1224.54 57.039 1229.33 61.836 1235.24 61.836ZM1235.24 56.26C1238.11 56.26 1240.36 53.964 1240.36 51.135C1240.36 48.306 1238.11 46.01 1235.24 46.01C1232.41 46.01 1230.11 48.306 1230.11 51.135C1230.11 53.964 1232.41 56.26 1235.24 56.26ZM1252.83 40.926H1249.59V40.27H1252.83V33.3H1253.48V40.27H1258.4V33.3H1259.06V40.27H1262.3V40.926H1259.06V45.846H1262.3V46.502H1259.06V62H1258.4V46.502H1253.48V62H1252.83V46.502H1249.59V45.846H1252.83V40.926ZM1258.4 40.926H1253.48V45.846H1258.4V40.926ZM1263.64 51.135C1263.64 44.862 1268.72 39.778 1275 39.778C1280 39.778 1284.22 42.976 1285.74 47.486L1272.41 55.563C1273.19 56.014 1274.05 56.26 1275 56.26C1277.05 56.26 1278.81 55.03 1279.63 53.308L1280.24 53.595C1279.34 55.563 1277.33 56.916 1275 56.916C1273.81 56.916 1272.7 56.547 1271.8 55.932L1267.37 58.638C1269.3 60.606 1272 61.836 1275 61.836C1279.26 61.836 1282.99 59.294 1284.71 55.645L1285.29 55.932C1283.48 59.827 1279.55 62.492 1275 62.492C1268.72 62.492 1263.64 57.408 1263.64 51.135ZM1264.29 51.135C1264.29 52.324 1264.5 53.431 1264.83 54.497L1269.26 51.791C1269.21 51.586 1269.21 51.34 1269.21 51.135C1269.21 47.937 1271.8 45.354 1275 45.354C1276.18 45.354 1277.33 45.723 1278.23 46.338L1282.62 43.673C1280.69 41.664 1277.99 40.434 1275 40.434C1269.09 40.434 1264.29 45.231 1264.29 51.135ZM1265.07 55.112C1265.52 56.219 1266.14 57.244 1266.92 58.146L1271.22 55.522C1270.32 54.743 1269.67 53.677 1269.38 52.488L1265.07 55.112ZM1269.87 51.135V51.422L1277.62 46.707C1276.84 46.256 1275.94 46.01 1275 46.01C1272.17 46.01 1269.87 48.306 1269.87 51.135ZM1269.95 52.16C1270.2 53.349 1270.9 54.415 1271.84 55.153L1280.04 50.151C1279.79 48.962 1279.14 47.896 1278.19 47.117L1269.95 52.16ZM1278.81 46.789C1279.71 47.568 1280.37 48.593 1280.61 49.823L1284.96 47.158C1284.51 46.051 1283.85 45.067 1283.11 44.165L1278.81 46.789ZM1309.66 62H1309.01L1303.1 46.871V62H1302.45V39.532H1297.53V62H1296.87V33.3H1306.02C1311.26 33.3 1315.45 37.482 1315.45 42.73C1315.45 46.912 1313.35 49.372 1310.94 50.889L1315.24 62H1314.58L1310.4 51.217C1309.21 51.914 1307.53 52.529 1306.14 52.939L1309.66 62ZM1308.76 45.313L1310.69 50.274C1312.9 48.88 1314.79 46.584 1314.79 42.73C1314.79 37.81 1310.94 33.956 1306.02 33.956H1303.1V38.876H1306.02C1308.15 38.876 1309.87 40.598 1309.87 42.73C1309.87 43.714 1309.5 44.575 1308.76 45.313ZM1303.1 39.532V46.871L1304.66 46.543C1307.86 45.846 1309.21 44.493 1309.21 42.73C1309.21 40.926 1307.82 39.532 1306.02 39.532H1303.1ZM1297.53 33.956V38.876H1302.45V33.956H1297.53ZM1310.16 50.602L1308.27 45.764C1307.04 46.707 1305.61 47.035 1304.01 47.363L1305.89 52.283C1307.12 51.955 1309.13 51.217 1310.16 50.602ZM1316.93 51.135C1316.93 44.862 1322.01 39.778 1328.29 39.778C1333.29 39.778 1337.51 42.976 1339.03 47.486L1325.7 55.563C1326.48 56.014 1327.34 56.26 1328.29 56.26C1330.34 56.26 1332.1 55.03 1332.92 53.308L1333.54 53.595C1332.63 55.563 1330.62 56.916 1328.29 56.916C1327.1 56.916 1325.99 56.547 1325.09 55.932L1320.66 58.638C1322.59 60.606 1325.29 61.836 1328.29 61.836C1332.55 61.836 1336.28 59.294 1338 55.645L1338.58 55.932C1336.77 59.827 1332.84 62.492 1328.29 62.492C1322.01 62.492 1316.93 57.408 1316.93 51.135ZM1317.59 51.135C1317.59 52.324 1317.79 53.431 1318.12 54.497L1322.55 51.791C1322.51 51.586 1322.51 51.34 1322.51 51.135C1322.51 47.937 1325.09 45.354 1328.29 45.354C1329.48 45.354 1330.62 45.723 1331.53 46.338L1335.91 43.673C1333.99 41.664 1331.28 40.434 1328.29 40.434C1322.38 40.434 1317.59 45.231 1317.59 51.135ZM1318.37 55.112C1318.82 56.219 1319.43 57.244 1320.21 58.146L1324.52 55.522C1323.61 54.743 1322.96 53.677 1322.67 52.488L1318.37 55.112ZM1323.16 51.135V51.422L1330.91 46.707C1330.13 46.256 1329.23 46.01 1328.29 46.01C1325.46 46.01 1323.16 48.306 1323.16 51.135ZM1323.24 52.16C1323.49 53.349 1324.19 54.415 1325.13 55.153L1333.33 50.151C1333.08 48.962 1332.43 47.896 1331.49 47.117L1323.24 52.16ZM1332.1 46.789C1333 47.568 1333.66 48.593 1333.9 49.823L1338.25 47.158C1337.8 46.051 1337.14 45.067 1336.41 44.165L1332.1 46.789ZM1356.93 42.115V60.155C1359.68 58.474 1361.85 55.071 1361.85 51.135C1361.85 47.199 1359.68 43.796 1356.93 42.115ZM1351.15 39.778C1353 39.778 1354.72 40.229 1356.28 41.008V40.27H1356.93V41.377C1359.23 42.648 1360.99 44.944 1361.85 47.322V40.27H1362.51V62H1361.85V54.907C1361.03 57.244 1359.23 59.663 1356.93 60.934V62H1356.28V61.262C1354.72 62.041 1353 62.492 1351.15 62.492C1344.88 62.492 1339.79 57.408 1339.79 51.135C1339.79 44.862 1344.88 39.778 1351.15 39.778ZM1351.15 61.836C1353 61.836 1354.76 61.385 1356.28 60.565V53.841C1355.29 55.645 1353.36 56.916 1351.15 56.916C1347.95 56.916 1345.37 54.333 1345.37 51.135C1345.37 47.937 1347.95 45.354 1351.15 45.354C1353.36 45.354 1355.29 46.625 1356.28 48.47V41.746C1354.76 40.926 1353 40.434 1351.15 40.434C1345.25 40.434 1340.45 45.231 1340.45 51.135C1340.45 57.039 1345.25 61.836 1351.15 61.836ZM1351.15 56.26C1354.02 56.26 1356.28 53.964 1356.28 51.135C1356.28 48.306 1354.02 46.01 1351.15 46.01C1348.32 46.01 1346.03 48.306 1346.03 51.135C1346.03 53.964 1348.32 56.26 1351.15 56.26ZM1377.55 45.846V46.502H1376.36C1373.86 46.502 1371.73 48.634 1371.73 51.135C1371.73 53.636 1373.86 55.768 1376.36 55.768H1377.55V56.424H1376.36C1373.49 56.424 1371.08 54.005 1371.08 51.135C1371.08 48.265 1373.49 45.846 1376.36 45.846H1377.55ZM1377.55 40.926H1376.36C1370.75 40.926 1366.16 45.518 1366.16 51.135C1366.16 56.752 1370.75 61.344 1376.36 61.344H1377.55V62H1376.36C1370.38 62 1365.5 57.121 1365.5 51.135C1365.5 45.149 1370.38 40.27 1376.36 40.27H1377.55V40.926ZM1383.07 40.926H1379.83V40.27H1383.07V33.3H1383.73V40.27H1388.65V33.3H1389.3V40.27H1392.54V40.926H1389.3V45.846H1392.54V46.502H1389.3V62H1388.65V46.502H1383.73V62H1383.07V46.502H1379.83V45.846H1383.07V40.926ZM1388.65 40.926H1383.73V45.846H1388.65V40.926ZM1417.45 62H1416.79L1410.89 46.871V62H1410.23V39.532H1405.31V62H1404.66V33.3H1413.8C1419.05 33.3 1423.23 37.482 1423.23 42.73C1423.23 46.912 1421.14 49.372 1418.72 50.889L1423.03 62H1422.37L1418.19 51.217C1417 51.914 1415.32 52.529 1413.92 52.939L1417.45 62ZM1416.55 45.313L1418.47 50.274C1420.69 48.88 1422.57 46.584 1422.57 42.73C1422.57 37.81 1418.72 33.956 1413.8 33.956H1410.89V38.876H1413.8C1415.93 38.876 1417.65 40.598 1417.65 42.73C1417.65 43.714 1417.29 44.575 1416.55 45.313ZM1410.89 39.532V46.871L1412.45 46.543C1415.65 45.846 1417 44.493 1417 42.73C1417 40.926 1415.6 39.532 1413.8 39.532H1410.89ZM1405.31 33.956V38.876H1410.23V33.956H1405.31ZM1417.94 50.602L1416.06 45.764C1414.83 46.707 1413.39 47.035 1411.79 47.363L1413.68 52.283C1414.91 51.955 1416.92 51.217 1417.94 50.602ZM1436.07 62.492C1429.8 62.492 1424.72 57.408 1424.72 51.135C1424.72 44.862 1429.8 39.778 1436.07 39.778C1442.35 39.778 1447.43 44.862 1447.43 51.135C1447.43 57.408 1442.35 62.492 1436.07 62.492ZM1436.07 61.836C1441.98 61.836 1446.77 57.039 1446.77 51.135C1446.77 45.231 1441.98 40.434 1436.07 40.434C1430.17 40.434 1425.37 45.231 1425.37 51.135C1425.37 57.039 1430.17 61.836 1436.07 61.836ZM1436.07 56.916C1432.87 56.916 1430.29 54.333 1430.29 51.135C1430.29 47.937 1432.87 45.354 1436.07 45.354C1439.27 45.354 1441.85 47.937 1441.85 51.135C1441.85 54.333 1439.27 56.916 1436.07 56.916ZM1436.07 56.26C1438.9 56.26 1441.2 53.964 1441.2 51.135C1441.2 48.306 1438.9 46.01 1436.07 46.01C1433.24 46.01 1430.95 48.306 1430.95 51.135C1430.95 53.964 1433.24 56.26 1436.07 56.26ZM1469.89 40.27V62H1469.23V55.809C1468.33 58.146 1466.56 60.073 1464.31 61.18V62H1463.65V61.508C1462.51 61.959 1461.28 62.205 1459.96 62.205C1454.51 62.205 1450.04 57.736 1450.04 52.283V40.27H1450.7V52.283C1450.7 57.367 1454.88 61.549 1459.96 61.549C1461.28 61.549 1462.51 61.262 1463.65 60.77V54.579C1462.87 55.809 1461.52 56.629 1459.96 56.629C1457.59 56.629 1455.62 54.661 1455.62 52.283V40.27H1456.27V52.283C1456.27 54.292 1457.95 55.973 1459.96 55.973C1461.97 55.973 1463.65 54.292 1463.65 52.283V40.27H1464.31V60.442C1467.22 58.884 1469.23 55.809 1469.23 52.283V40.27H1469.89ZM1476.12 40.926H1472.88V40.27H1476.12V33.3H1476.78V40.27H1481.7V33.3H1482.35V40.27H1485.59V40.926H1482.35V45.846H1485.59V46.502H1482.35V62H1481.7V46.502H1476.78V62H1476.12V46.502H1472.88V45.846H1476.12V40.926ZM1481.7 40.926H1476.78V45.846H1481.7V40.926ZM1486.94 51.135C1486.94 44.862 1492.02 39.778 1498.29 39.778C1503.3 39.778 1507.52 42.976 1509.04 47.486L1495.71 55.563C1496.49 56.014 1497.35 56.26 1498.29 56.26C1500.34 56.26 1502.11 55.03 1502.93 53.308L1503.54 53.595C1502.64 55.563 1500.63 56.916 1498.29 56.916C1497.1 56.916 1496 56.547 1495.1 55.932L1490.67 58.638C1492.59 60.606 1495.3 61.836 1498.29 61.836C1502.56 61.836 1506.29 59.294 1508.01 55.645L1508.58 55.932C1506.78 59.827 1502.84 62.492 1498.29 62.492C1492.02 62.492 1486.94 57.408 1486.94 51.135ZM1487.59 51.135C1487.59 52.324 1487.8 53.431 1488.13 54.497L1492.55 51.791C1492.51 51.586 1492.51 51.34 1492.51 51.135C1492.51 47.937 1495.1 45.354 1498.29 45.354C1499.48 45.354 1500.63 45.723 1501.53 46.338L1505.92 43.673C1503.99 41.664 1501.29 40.434 1498.29 40.434C1492.39 40.434 1487.59 45.231 1487.59 51.135ZM1488.37 55.112C1488.82 56.219 1489.44 57.244 1490.22 58.146L1494.52 55.522C1493.62 54.743 1492.96 53.677 1492.68 52.488L1488.37 55.112ZM1493.17 51.135V51.422L1500.92 46.707C1500.14 46.256 1499.24 46.01 1498.29 46.01C1495.46 46.01 1493.17 48.306 1493.17 51.135ZM1493.25 52.16C1493.5 53.349 1494.19 54.415 1495.14 55.153L1503.34 50.151C1503.09 48.962 1502.43 47.896 1501.49 47.117L1493.25 52.16ZM1502.11 46.789C1503.01 47.568 1503.66 48.593 1503.91 49.823L1508.26 47.158C1507.81 46.051 1507.15 45.067 1506.41 44.165L1502.11 46.789ZM1516.6 62V42.689C1514.39 44.042 1511.68 46.83 1511.68 51.709V62H1511.03V40.27H1511.68V47.732C1512.71 44.903 1514.31 43.304 1516.6 41.951V40.27H1517.26V41.582C1518.9 40.762 1520.66 40.352 1522.39 40.352V41.008C1520.66 41.008 1518.86 41.459 1517.26 42.32V49.044C1518.2 47.199 1520.17 45.928 1522.39 45.928V46.584C1519.52 46.584 1517.26 48.88 1517.26 51.709V62H1516.6ZM1533.98 62V33.3H1542.02C1547.23 33.3 1551.45 37.523 1551.45 42.73C1551.45 44.534 1550.96 46.215 1550.06 47.65C1550.96 49.044 1551.45 50.766 1551.45 52.57C1551.45 57.777 1547.23 62 1542.02 62H1533.98ZM1534.64 61.344H1539.56V56.424H1534.64V61.344ZM1534.64 55.768H1539.56V49.372H1534.64V55.768ZM1534.64 48.716H1539.56V46.584H1534.64V48.716ZM1534.64 45.928H1539.56V39.532H1534.64V45.928ZM1534.64 38.876H1539.56V33.956H1534.64V38.876ZM1540.22 61.344H1542.02C1546.86 61.344 1550.79 57.408 1550.79 52.57C1550.79 50.725 1550.22 49.044 1549.28 47.65C1550.22 46.256 1550.79 44.575 1550.79 42.73C1550.79 37.892 1546.86 33.956 1542.02 33.956H1540.22V38.876H1542.02C1544.15 38.876 1545.87 40.598 1545.87 42.73C1545.87 44.862 1544.15 46.584 1542.02 46.584H1540.22V48.716H1542.02C1544.15 48.716 1545.87 50.438 1545.87 52.57C1545.87 54.702 1544.15 56.424 1542.02 56.424H1540.22V61.344ZM1540.22 55.768H1542.02C1543.78 55.768 1545.22 54.333 1545.22 52.57C1545.22 50.807 1543.78 49.372 1542.02 49.372H1540.22V55.768ZM1540.22 45.928H1542.02C1543.78 45.928 1545.22 44.493 1545.22 42.73C1545.22 40.967 1543.78 39.532 1542.02 39.532H1540.22V45.928ZM1565.12 62.492C1558.85 62.492 1553.76 57.408 1553.76 51.135C1553.76 44.862 1558.85 39.778 1565.12 39.778C1571.39 39.778 1576.48 44.862 1576.48 51.135C1576.48 57.408 1571.39 62.492 1565.12 62.492ZM1565.12 61.836C1571.02 61.836 1575.82 57.039 1575.82 51.135C1575.82 45.231 1571.02 40.434 1565.12 40.434C1559.21 40.434 1554.42 45.231 1554.42 51.135C1554.42 57.039 1559.21 61.836 1565.12 61.836ZM1565.12 56.916C1561.92 56.916 1559.34 54.333 1559.34 51.135C1559.34 47.937 1561.92 45.354 1565.12 45.354C1568.32 45.354 1570.9 47.937 1570.9 51.135C1570.9 54.333 1568.32 56.916 1565.12 56.916ZM1565.12 56.26C1567.95 56.26 1570.24 53.964 1570.24 51.135C1570.24 48.306 1567.95 46.01 1565.12 46.01C1562.29 46.01 1559.99 48.306 1559.99 51.135C1559.99 53.964 1562.29 56.26 1565.12 56.26ZM1579.42 62V40.27H1580.07V62H1579.42ZM1585.65 40.27V62H1584.99V40.27H1585.65ZM1584.99 38.138V31.25H1585.65V38.138H1584.99ZM1580.07 31.25V38.138H1579.42V31.25H1580.07ZM1590.48 31.25V62H1589.83V31.25H1590.48ZM1596.06 31.25V62H1595.4V31.25H1596.06ZM1599.01 51.135C1599.01 44.862 1604.09 39.778 1610.36 39.778C1615.37 39.778 1619.59 42.976 1621.11 47.486L1607.78 55.563C1608.56 56.014 1609.42 56.26 1610.36 56.26C1612.41 56.26 1614.18 55.03 1615 53.308L1615.61 53.595C1614.71 55.563 1612.7 56.916 1610.36 56.916C1609.17 56.916 1608.07 56.547 1607.17 55.932L1602.74 58.638C1604.66 60.606 1607.37 61.836 1610.36 61.836C1614.63 61.836 1618.36 59.294 1620.08 55.645L1620.65 55.932C1618.85 59.827 1614.91 62.492 1610.36 62.492C1604.09 62.492 1599.01 57.408 1599.01 51.135ZM1599.66 51.135C1599.66 52.324 1599.87 53.431 1600.2 54.497L1604.62 51.791C1604.58 51.586 1604.58 51.34 1604.58 51.135C1604.58 47.937 1607.17 45.354 1610.36 45.354C1611.55 45.354 1612.7 45.723 1613.6 46.338L1617.99 43.673C1616.06 41.664 1613.36 40.434 1610.36 40.434C1604.46 40.434 1599.66 45.231 1599.66 51.135ZM1600.44 55.112C1600.89 56.219 1601.51 57.244 1602.29 58.146L1606.59 55.522C1605.69 54.743 1605.03 53.677 1604.75 52.488L1600.44 55.112ZM1605.24 51.135V51.422L1612.99 46.707C1612.21 46.256 1611.31 46.01 1610.36 46.01C1607.53 46.01 1605.24 48.306 1605.24 51.135ZM1605.32 52.16C1605.57 53.349 1606.26 54.415 1607.21 55.153L1615.41 50.151C1615.16 48.962 1614.5 47.896 1613.56 47.117L1605.32 52.16ZM1614.18 46.789C1615.08 47.568 1615.73 48.593 1615.98 49.823L1620.33 47.158C1619.88 46.051 1619.22 45.067 1618.48 44.165L1614.18 46.789ZM1628.67 62V42.689C1626.46 44.042 1623.75 46.83 1623.75 51.709V62H1623.1V40.27H1623.75V47.732C1624.78 44.903 1626.38 43.304 1628.67 41.951V40.27H1629.33V41.582C1630.97 40.762 1632.73 40.352 1634.46 40.352V41.008C1632.73 41.008 1630.93 41.459 1629.33 42.32V49.044C1630.27 47.199 1632.24 45.928 1634.46 45.928V46.584C1631.59 46.584 1629.33 48.88 1629.33 51.709V62H1628.67ZM1652.29 39.532V45.928H1655.2C1657 45.928 1658.39 44.534 1658.39 42.73C1658.39 40.926 1657 39.532 1655.2 39.532H1652.29ZM1652.29 38.876H1655.2C1657.33 38.876 1659.05 40.598 1659.05 42.73C1659.05 44.862 1657.33 46.584 1655.2 46.584H1652.29V51.504H1655.2C1660.12 51.504 1663.97 47.65 1663.97 42.73C1663.97 37.81 1660.12 33.956 1655.2 33.956H1652.29V38.876ZM1646.71 52.16V62H1646.05V33.3H1655.2C1660.44 33.3 1664.63 37.482 1664.63 42.73C1664.63 47.978 1660.44 52.16 1655.2 52.16H1652.29V62H1651.63V52.16H1646.71ZM1646.71 39.532V45.928H1651.63V39.532H1646.71ZM1651.63 33.956H1646.71V38.876H1651.63V33.956ZM1651.63 46.584H1646.71V51.504H1651.63V46.584ZM1668.08 31.25V62H1667.42V31.25H1668.08ZM1673.65 31.25V62H1673V31.25H1673.65ZM1693.74 42.115V60.155C1696.49 58.474 1698.66 55.071 1698.66 51.135C1698.66 47.199 1696.49 43.796 1693.74 42.115ZM1687.96 39.778C1689.8 39.778 1691.53 40.229 1693.08 41.008V40.27H1693.74V41.377C1696.04 42.648 1697.8 44.944 1698.66 47.322V40.27H1699.32V62H1698.66V54.907C1697.84 57.244 1696.04 59.663 1693.74 60.934V62H1693.08V61.262C1691.53 62.041 1689.8 62.492 1687.96 62.492C1681.69 62.492 1676.6 57.408 1676.6 51.135C1676.6 44.862 1681.69 39.778 1687.96 39.778ZM1687.96 61.836C1689.8 61.836 1691.57 61.385 1693.08 60.565V53.841C1692.1 55.645 1690.17 56.916 1687.96 56.916C1684.76 56.916 1682.18 54.333 1682.18 51.135C1682.18 47.937 1684.76 45.354 1687.96 45.354C1690.17 45.354 1692.1 46.625 1693.08 48.47V41.746C1691.57 40.926 1689.8 40.434 1687.96 40.434C1682.05 40.434 1677.26 45.231 1677.26 51.135C1677.26 57.039 1682.05 61.836 1687.96 61.836ZM1687.96 56.26C1690.83 56.26 1693.08 53.964 1693.08 51.135C1693.08 48.306 1690.83 46.01 1687.96 46.01C1685.13 46.01 1682.83 48.306 1682.83 51.135C1682.83 53.964 1685.13 56.26 1687.96 56.26ZM1705.55 40.926H1702.31V40.27H1705.55V33.3H1706.2V40.27H1711.12V33.3H1711.78V40.27H1715.02V40.926H1711.78V45.846H1715.02V46.502H1711.78V62H1711.12V46.502H1706.2V62H1705.55V46.502H1702.31V45.846H1705.55V40.926ZM1711.12 40.926H1706.2V45.846H1711.12V40.926ZM1716.36 51.135C1716.36 44.862 1721.44 39.778 1727.72 39.778C1732.72 39.778 1736.94 42.976 1738.46 47.486L1725.13 55.563C1725.91 56.014 1726.77 56.26 1727.72 56.26C1729.77 56.26 1731.53 55.03 1732.35 53.308L1732.97 53.595C1732.06 55.563 1730.05 56.916 1727.72 56.916C1726.53 56.916 1725.42 56.547 1724.52 55.932L1720.09 58.638C1722.02 60.606 1724.72 61.836 1727.72 61.836C1731.98 61.836 1735.71 59.294 1737.43 55.645L1738.01 55.932C1736.2 59.827 1732.27 62.492 1727.72 62.492C1721.44 62.492 1716.36 57.408 1716.36 51.135ZM1717.02 51.135C1717.02 52.324 1717.22 53.431 1717.55 54.497L1721.98 51.791C1721.94 51.586 1721.94 51.34 1721.94 51.135C1721.94 47.937 1724.52 45.354 1727.72 45.354C1728.91 45.354 1730.05 45.723 1730.96 46.338L1735.34 43.673C1733.42 41.664 1730.71 40.434 1727.72 40.434C1721.81 40.434 1717.02 45.231 1717.02 51.135ZM1717.8 55.112C1718.25 56.219 1718.86 57.244 1719.64 58.146L1723.95 55.522C1723.04 54.743 1722.39 53.677 1722.1 52.488L1717.8 55.112ZM1722.59 51.135V51.422L1730.34 46.707C1729.56 46.256 1728.66 46.01 1727.72 46.01C1724.89 46.01 1722.59 48.306 1722.59 51.135ZM1722.67 52.16C1722.92 53.349 1723.62 54.415 1724.56 55.153L1732.76 50.151C1732.51 48.962 1731.86 47.896 1730.92 47.117L1722.67 52.16ZM1731.53 46.789C1732.43 47.568 1733.09 48.593 1733.33 49.823L1737.68 47.158C1737.23 46.051 1736.57 45.067 1735.84 44.165L1731.53 46.789ZM1762.39 62H1761.73L1755.83 46.871V62H1755.17V39.532H1750.25V62H1749.59V33.3H1758.74C1763.99 33.3 1768.17 37.482 1768.17 42.73C1768.17 46.912 1766.08 49.372 1763.66 50.889L1767.96 62H1767.31L1763.12 51.217C1761.94 51.914 1760.25 52.529 1758.86 52.939L1762.39 62ZM1761.48 45.313L1763.41 50.274C1765.63 48.88 1767.51 46.584 1767.51 42.73C1767.51 37.81 1763.66 33.956 1758.74 33.956H1755.83V38.876H1758.74C1760.87 38.876 1762.59 40.598 1762.59 42.73C1762.59 43.714 1762.22 44.575 1761.48 45.313ZM1755.83 39.532V46.871L1757.38 46.543C1760.58 45.846 1761.94 44.493 1761.94 42.73C1761.94 40.926 1760.54 39.532 1758.74 39.532H1755.83ZM1750.25 33.956V38.876H1755.17V33.956H1750.25ZM1762.88 50.602L1760.99 45.764C1759.76 46.707 1758.33 47.035 1756.73 47.363L1758.61 52.283C1759.84 51.955 1761.85 51.217 1762.88 50.602ZM1769.65 51.135C1769.65 44.862 1774.74 39.778 1781.01 39.778C1786.01 39.778 1790.23 42.976 1791.75 47.486L1778.43 55.563C1779.21 56.014 1780.07 56.26 1781.01 56.26C1783.06 56.26 1784.82 55.03 1785.64 53.308L1786.26 53.595C1785.36 55.563 1783.35 56.916 1781.01 56.916C1779.82 56.916 1778.71 56.547 1777.81 55.932L1773.38 58.638C1775.31 60.606 1778.02 61.836 1781.01 61.836C1785.27 61.836 1789 59.294 1790.73 55.645L1791.3 55.932C1789.5 59.827 1785.56 62.492 1781.01 62.492C1774.74 62.492 1769.65 57.408 1769.65 51.135ZM1770.31 51.135C1770.31 52.324 1770.51 53.431 1770.84 54.497L1775.27 51.791C1775.23 51.586 1775.23 51.34 1775.23 51.135C1775.23 47.937 1777.81 45.354 1781.01 45.354C1782.2 45.354 1783.35 45.723 1784.25 46.338L1788.64 43.673C1786.71 41.664 1784 40.434 1781.01 40.434C1775.11 40.434 1770.31 45.231 1770.31 51.135ZM1771.09 55.112C1771.54 56.219 1772.15 57.244 1772.93 58.146L1777.24 55.522C1776.34 54.743 1775.68 53.677 1775.39 52.488L1771.09 55.112ZM1775.88 51.135V51.422L1783.63 46.707C1782.85 46.256 1781.95 46.01 1781.01 46.01C1778.18 46.01 1775.88 48.306 1775.88 51.135ZM1775.97 52.16C1776.21 53.349 1776.91 54.415 1777.85 55.153L1786.05 50.151C1785.81 48.962 1785.15 47.896 1784.21 47.117L1775.97 52.16ZM1784.82 46.789C1785.72 47.568 1786.38 48.593 1786.63 49.823L1790.97 47.158C1790.52 46.051 1789.87 45.067 1789.13 44.165L1784.82 46.789ZM1809.65 42.115V60.155C1812.4 58.474 1814.57 55.071 1814.57 51.135C1814.57 47.199 1812.4 43.796 1809.65 42.115ZM1803.87 39.778C1805.72 39.778 1807.44 40.229 1809 41.008V40.27H1809.65V41.377C1811.95 42.648 1813.71 44.944 1814.57 47.322V40.27H1815.23V62H1814.57V54.907C1813.75 57.244 1811.95 59.663 1809.65 60.934V62H1809V61.262C1807.44 62.041 1805.72 62.492 1803.87 62.492C1797.6 62.492 1792.51 57.408 1792.51 51.135C1792.51 44.862 1797.6 39.778 1803.87 39.778ZM1803.87 61.836C1805.72 61.836 1807.48 61.385 1809 60.565V53.841C1808.01 55.645 1806.09 56.916 1803.87 56.916C1800.67 56.916 1798.09 54.333 1798.09 51.135C1798.09 47.937 1800.67 45.354 1803.87 45.354C1806.09 45.354 1808.01 46.625 1809 48.47V41.746C1807.48 40.926 1805.72 40.434 1803.87 40.434C1797.97 40.434 1793.17 45.231 1793.17 51.135C1793.17 57.039 1797.97 61.836 1803.87 61.836ZM1803.87 56.26C1806.74 56.26 1809 53.964 1809 51.135C1809 48.306 1806.74 46.01 1803.87 46.01C1801.04 46.01 1798.75 48.306 1798.75 51.135C1798.75 53.964 1801.04 56.26 1803.87 56.26ZM1830.27 45.846V46.502H1829.09C1826.58 46.502 1824.45 48.634 1824.45 51.135C1824.45 53.636 1826.58 55.768 1829.09 55.768H1830.27V56.424H1829.09C1826.22 56.424 1823.8 54.005 1823.8 51.135C1823.8 48.265 1826.22 45.846 1829.09 45.846H1830.27ZM1830.27 40.926H1829.09C1823.47 40.926 1818.88 45.518 1818.88 51.135C1818.88 56.752 1823.47 61.344 1829.09 61.344H1830.27V62H1829.09C1823.1 62 1818.22 57.121 1818.22 51.135C1818.22 45.149 1823.1 40.27 1829.09 40.27H1830.27V40.926ZM1835.79 40.926H1832.55V40.27H1835.79V33.3H1836.45V40.27H1841.37V33.3H1842.03V40.27H1845.26V40.926H1842.03V45.846H1845.26V46.502H1842.03V62H1841.37V46.502H1836.45V62H1835.79V46.502H1832.55V45.846H1835.79V40.926ZM1841.37 40.926H1836.45V45.846H1841.37V40.926ZM1870.17 62H1869.52L1863.61 46.871V62H1862.96V39.532H1858.04V62H1857.38V33.3H1866.52C1871.77 33.3 1875.95 37.482 1875.95 42.73C1875.95 46.912 1873.86 49.372 1871.44 50.889L1875.75 62H1875.09L1870.91 51.217C1869.72 51.914 1868.04 52.529 1866.65 52.939L1870.17 62ZM1869.27 45.313L1871.2 50.274C1873.41 48.88 1875.3 46.584 1875.3 42.73C1875.3 37.81 1871.44 33.956 1866.52 33.956H1863.61V38.876H1866.52C1868.65 38.876 1870.38 40.598 1870.38 42.73C1870.38 43.714 1870.01 44.575 1869.27 45.313ZM1863.61 39.532V46.871L1865.17 46.543C1868.37 45.846 1869.72 44.493 1869.72 42.73C1869.72 40.926 1868.33 39.532 1866.52 39.532H1863.61ZM1858.04 33.956V38.876H1862.96V33.956H1858.04ZM1870.66 50.602L1868.78 45.764C1867.55 46.707 1866.11 47.035 1864.51 47.363L1866.4 52.283C1867.63 51.955 1869.64 51.217 1870.66 50.602ZM1888.79 62.492C1882.52 62.492 1877.44 57.408 1877.44 51.135C1877.44 44.862 1882.52 39.778 1888.79 39.778C1895.07 39.778 1900.15 44.862 1900.15 51.135C1900.15 57.408 1895.07 62.492 1888.79 62.492ZM1888.79 61.836C1894.7 61.836 1899.5 57.039 1899.5 51.135C1899.5 45.231 1894.7 40.434 1888.79 40.434C1882.89 40.434 1878.09 45.231 1878.09 51.135C1878.09 57.039 1882.89 61.836 1888.79 61.836ZM1888.79 56.916C1885.6 56.916 1883.01 54.333 1883.01 51.135C1883.01 47.937 1885.6 45.354 1888.79 45.354C1891.99 45.354 1894.58 47.937 1894.58 51.135C1894.58 54.333 1891.99 56.916 1888.79 56.916ZM1888.79 56.26C1891.62 56.26 1893.92 53.964 1893.92 51.135C1893.92 48.306 1891.62 46.01 1888.79 46.01C1885.97 46.01 1883.67 48.306 1883.67 51.135C1883.67 53.964 1885.97 56.26 1888.79 56.26ZM1922.61 40.27V62H1921.95V55.809C1921.05 58.146 1919.29 60.073 1917.03 61.18V62H1916.38V61.508C1915.23 61.959 1914 62.205 1912.69 62.205C1907.23 62.205 1902.76 57.736 1902.76 52.283V40.27H1903.42V52.283C1903.42 57.367 1907.6 61.549 1912.69 61.549C1914 61.549 1915.23 61.262 1916.38 60.77V54.579C1915.6 55.809 1914.24 56.629 1912.69 56.629C1910.31 56.629 1908.34 54.661 1908.34 52.283V40.27H1909V52.283C1909 54.292 1910.68 55.973 1912.69 55.973C1914.69 55.973 1916.38 54.292 1916.38 52.283V40.27H1917.03V60.442C1919.94 58.884 1921.95 55.809 1921.95 52.283V40.27H1922.61ZM1928.84 40.926H1925.61V40.27H1928.84V33.3H1929.5V40.27H1934.42V33.3H1935.08V40.27H1938.32V40.926H1935.08V45.846H1938.32V46.502H1935.08V62H1934.42V46.502H1929.5V62H1928.84V46.502H1925.61V45.846H1928.84V40.926ZM1934.42 40.926H1929.5V45.846H1934.42V40.926ZM1939.66 51.135C1939.66 44.862 1944.74 39.778 1951.02 39.778C1956.02 39.778 1960.24 42.976 1961.76 47.486L1948.43 55.563C1949.21 56.014 1950.07 56.26 1951.02 56.26C1953.07 56.26 1954.83 55.03 1955.65 53.308L1956.26 53.595C1955.36 55.563 1953.35 56.916 1951.02 56.916C1949.83 56.916 1948.72 56.547 1947.82 55.932L1943.39 58.638C1945.32 60.606 1948.02 61.836 1951.02 61.836C1955.28 61.836 1959.01 59.294 1960.73 55.645L1961.31 55.932C1959.5 59.827 1955.57 62.492 1951.02 62.492C1944.74 62.492 1939.66 57.408 1939.66 51.135ZM1940.31 51.135C1940.31 52.324 1940.52 53.431 1940.85 54.497L1945.28 51.791C1945.23 51.586 1945.23 51.34 1945.23 51.135C1945.23 47.937 1947.82 45.354 1951.02 45.354C1952.2 45.354 1953.35 45.723 1954.25 46.338L1958.64 43.673C1956.71 41.664 1954.01 40.434 1951.02 40.434C1945.11 40.434 1940.31 45.231 1940.31 51.135ZM1941.09 55.112C1941.54 56.219 1942.16 57.244 1942.94 58.146L1947.24 55.522C1946.34 54.743 1945.69 53.677 1945.4 52.488L1941.09 55.112ZM1945.89 51.135V51.422L1953.64 46.707C1952.86 46.256 1951.96 46.01 1951.02 46.01C1948.19 46.01 1945.89 48.306 1945.89 51.135ZM1945.97 52.16C1946.22 53.349 1946.92 54.415 1947.86 55.153L1956.06 50.151C1955.81 48.962 1955.16 47.896 1954.21 47.117L1945.97 52.16ZM1954.83 46.789C1955.73 47.568 1956.39 48.593 1956.63 49.823L1960.98 47.158C1960.53 46.051 1959.87 45.067 1959.13 44.165L1954.83 46.789ZM1969.33 62V42.689C1967.11 44.042 1964.41 46.83 1964.41 51.709V62H1963.75V40.27H1964.41V47.732C1965.43 44.903 1967.03 43.304 1969.33 41.951V40.27H1969.98V41.582C1971.62 40.762 1973.39 40.352 1975.11 40.352V41.008C1973.39 41.008 1971.58 41.459 1969.98 42.32V49.044C1970.93 47.199 1972.89 45.928 1975.11 45.928V46.584C1972.24 46.584 1969.98 48.88 1969.98 51.709V62H1969.33ZM854.901 115V86.3H862.937C868.144 86.3 872.367 90.523 872.367 95.73C872.367 97.534 871.875 99.215 870.973 100.65C871.875 102.044 872.367 103.766 872.367 105.57C872.367 110.777 868.144 115 862.937 115H854.901ZM855.557 114.344H860.477V109.424H855.557V114.344ZM855.557 108.768H860.477V102.372H855.557V108.768ZM855.557 101.716H860.477V99.584H855.557V101.716ZM855.557 98.928H860.477V92.532H855.557V98.928ZM855.557 91.876H860.477V86.956H855.557V91.876ZM861.133 114.344H862.937C867.775 114.344 871.711 110.408 871.711 105.57C871.711 103.725 871.137 102.044 870.194 100.65C871.137 99.256 871.711 97.575 871.711 95.73C871.711 90.892 867.775 86.956 862.937 86.956H861.133V91.876H862.937C865.069 91.876 866.791 93.598 866.791 95.73C866.791 97.862 865.069 99.584 862.937 99.584H861.133V101.716H862.937C865.069 101.716 866.791 103.438 866.791 105.57C866.791 107.702 865.069 109.424 862.937 109.424H861.133V114.344ZM861.133 108.768H862.937C864.7 108.768 866.135 107.333 866.135 105.57C866.135 103.807 864.7 102.372 862.937 102.372H861.133V108.768ZM861.133 98.928H862.937C864.7 98.928 866.135 97.493 866.135 95.73C866.135 93.967 864.7 92.532 862.937 92.532H861.133V98.928ZM886.036 115.492C879.763 115.492 874.679 110.408 874.679 104.135C874.679 97.862 879.763 92.778 886.036 92.778C892.309 92.778 897.393 97.862 897.393 104.135C897.393 110.408 892.309 115.492 886.036 115.492ZM886.036 114.836C891.94 114.836 896.737 110.039 896.737 104.135C896.737 98.231 891.94 93.434 886.036 93.434C880.132 93.434 875.335 98.231 875.335 104.135C875.335 110.039 880.132 114.836 886.036 114.836ZM886.036 109.916C882.838 109.916 880.255 107.333 880.255 104.135C880.255 100.937 882.838 98.354 886.036 98.354C889.234 98.354 891.817 100.937 891.817 104.135C891.817 107.333 889.234 109.916 886.036 109.916ZM886.036 109.26C888.865 109.26 891.161 106.964 891.161 104.135C891.161 101.306 888.865 99.01 886.036 99.01C883.207 99.01 880.911 101.306 880.911 104.135C880.911 106.964 883.207 109.26 886.036 109.26ZM900.333 115V93.27H900.989V115H900.333ZM906.565 93.27V115H905.909V93.27H906.565ZM905.909 91.138V84.25H906.565V91.138H905.909ZM900.989 84.25V91.138H900.333V84.25H900.989ZM911.399 84.25V115H910.743V84.25H911.399ZM916.975 84.25V115H916.319V84.25H916.975ZM919.924 104.135C919.924 97.862 925.008 92.778 931.281 92.778C936.283 92.778 940.506 95.976 942.023 100.486L928.698 108.563C929.477 109.014 930.338 109.26 931.281 109.26C933.331 109.26 935.094 108.03 935.914 106.308L936.529 106.595C935.627 108.563 933.618 109.916 931.281 109.916C930.092 109.916 928.985 109.547 928.083 108.932L923.655 111.638C925.582 113.606 928.288 114.836 931.281 114.836C935.545 114.836 939.276 112.294 940.998 108.645L941.572 108.932C939.767 112.827 935.832 115.492 931.281 115.492C925.008 115.492 919.924 110.408 919.924 104.135ZM920.58 104.135C920.58 105.324 920.785 106.431 921.113 107.497L925.541 104.791C925.5 104.586 925.5 104.34 925.5 104.135C925.5 100.937 928.083 98.354 931.281 98.354C932.47 98.354 933.618 98.723 934.52 99.338L938.907 96.673C936.98 94.664 934.274 93.434 931.281 93.434C925.377 93.434 920.58 98.231 920.58 104.135ZM921.359 108.112C921.81 109.219 922.425 110.244 923.204 111.146L927.509 108.522C926.607 107.743 925.951 106.677 925.664 105.488L921.359 108.112ZM926.156 104.135V104.422L933.905 99.707C933.126 99.256 932.224 99.01 931.281 99.01C928.452 99.01 926.156 101.306 926.156 104.135ZM926.238 105.16C926.484 106.349 927.181 107.415 928.124 108.153L936.324 103.151C936.078 101.962 935.422 100.896 934.479 100.117L926.238 105.16ZM935.094 99.789C935.996 100.568 936.652 101.593 936.898 102.823L941.244 100.158C940.793 99.051 940.136 98.067 939.399 97.165L935.094 99.789ZM949.592 115V95.689C947.378 97.042 944.672 99.83 944.672 104.709V115H944.016V93.27H944.672V100.732C945.697 97.903 947.296 96.304 949.592 94.951V93.27H950.248V94.582C951.888 93.762 953.651 93.352 955.373 93.352V94.008C953.651 94.008 951.847 94.459 950.248 95.32V102.044C951.191 100.199 953.159 98.928 955.373 98.928V99.584C952.503 99.584 950.248 101.88 950.248 104.709V115H949.592ZM973.203 92.532V98.928H976.114C977.918 98.928 979.312 97.534 979.312 95.73C979.312 93.926 977.918 92.532 976.114 92.532H973.203ZM973.203 91.876H976.114C978.246 91.876 979.968 93.598 979.968 95.73C979.968 97.862 978.246 99.584 976.114 99.584H973.203V104.504H976.114C981.034 104.504 984.888 100.65 984.888 95.73C984.888 90.81 981.034 86.956 976.114 86.956H973.203V91.876ZM967.627 105.16V115H966.971V86.3H976.114C981.362 86.3 985.544 90.482 985.544 95.73C985.544 100.978 981.362 105.16 976.114 105.16H973.203V115H972.547V105.16H967.627ZM967.627 92.532V98.928H972.547V92.532H967.627ZM972.547 86.956H967.627V91.876H972.547V86.956ZM972.547 99.584H967.627V104.504H972.547V99.584ZM988.995 84.25V115H988.339V84.25H988.995ZM994.571 84.25V115H993.915V84.25H994.571ZM1014.66 95.115V113.155C1017.4 111.474 1019.58 108.071 1019.58 104.135C1019.58 100.199 1017.4 96.796 1014.66 95.115ZM1008.88 92.778C1010.72 92.778 1012.44 93.229 1014 94.008V93.27H1014.66V94.377C1016.95 95.648 1018.72 97.944 1019.58 100.322V93.27H1020.23V115H1019.58V107.907C1018.76 110.244 1016.95 112.663 1014.66 113.934V115H1014V114.262C1012.44 115.041 1010.72 115.492 1008.88 115.492C1002.6 115.492 997.519 110.408 997.519 104.135C997.519 97.862 1002.6 92.778 1008.88 92.778ZM1008.88 114.836C1010.72 114.836 1012.48 114.385 1014 113.565V106.841C1013.02 108.645 1011.09 109.916 1008.88 109.916C1005.68 109.916 1003.1 107.333 1003.1 104.135C1003.1 100.937 1005.68 98.354 1008.88 98.354C1011.09 98.354 1013.02 99.625 1014 101.47V94.746C1012.48 93.926 1010.72 93.434 1008.88 93.434C1002.97 93.434 998.175 98.231 998.175 104.135C998.175 110.039 1002.97 114.836 1008.88 114.836ZM1008.88 109.26C1011.75 109.26 1014 106.964 1014 104.135C1014 101.306 1011.75 99.01 1008.88 99.01C1006.05 99.01 1003.75 101.306 1003.75 104.135C1003.75 106.964 1006.05 109.26 1008.88 109.26ZM1026.46 93.926H1023.23V93.27H1026.46V86.3H1027.12V93.27H1032.04V86.3H1032.7V93.27H1035.94V93.926H1032.7V98.846H1035.94V99.502H1032.7V115H1032.04V99.502H1027.12V115H1026.46V99.502H1023.23V98.846H1026.46V93.926ZM1032.04 93.926H1027.12V98.846H1032.04V93.926ZM1037.28 104.135C1037.28 97.862 1042.36 92.778 1048.63 92.778C1053.64 92.778 1057.86 95.976 1059.38 100.486L1046.05 108.563C1046.83 109.014 1047.69 109.26 1048.63 109.26C1050.68 109.26 1052.45 108.03 1053.27 106.308L1053.88 106.595C1052.98 108.563 1050.97 109.916 1048.63 109.916C1047.45 109.916 1046.34 109.547 1045.44 108.932L1041.01 111.638C1042.94 113.606 1045.64 114.836 1048.63 114.836C1052.9 114.836 1056.63 112.294 1058.35 108.645L1058.93 108.932C1057.12 112.827 1053.19 115.492 1048.63 115.492C1042.36 115.492 1037.28 110.408 1037.28 104.135ZM1037.93 104.135C1037.93 105.324 1038.14 106.431 1038.47 107.497L1042.89 104.791C1042.85 104.586 1042.85 104.34 1042.85 104.135C1042.85 100.937 1045.44 98.354 1048.63 98.354C1049.82 98.354 1050.97 98.723 1051.87 99.338L1056.26 96.673C1054.33 94.664 1051.63 93.434 1048.63 93.434C1042.73 93.434 1037.93 98.231 1037.93 104.135ZM1038.71 108.112C1039.16 109.219 1039.78 110.244 1040.56 111.146L1044.86 108.522C1043.96 107.743 1043.3 106.677 1043.02 105.488L1038.71 108.112ZM1043.51 104.135V104.422L1051.26 99.707C1050.48 99.256 1049.58 99.01 1048.63 99.01C1045.81 99.01 1043.51 101.306 1043.51 104.135ZM1043.59 105.16C1043.84 106.349 1044.53 107.415 1045.48 108.153L1053.68 103.151C1053.43 101.962 1052.78 100.896 1051.83 100.117L1043.59 105.16ZM1052.45 99.789C1053.35 100.568 1054.01 101.593 1054.25 102.823L1058.6 100.158C1058.15 99.051 1057.49 98.067 1056.75 97.165L1052.45 99.789Z" fill="white"/>
</g>
<defs>
<clipPath id="clip0_443_857">
<rect width="1940" height="343" fill="white"/>
</clipPath>
</defs>
</svg>
